<?xml version="1.0" encoding="UTF-8" standalone="no"?>
<svg
   id="Layer_1"
   data-name="Layer 1"
   viewBox="0 0 285 134.17"
   version="1.1"
   sodipodi:docname="SPAAM-Logo-White.svg"
   inkscape:version="1.1.1 (1:1.1+202109281949+c3084ef5ed)"
   xmlns:inkscape="http://www.inkscape.org/namespaces/inkscape"
   xmlns:sodipodi="http://sodipodi.sourceforge.net/DTD/sodipodi-0.dtd"
   xmlns="http://www.w3.org/2000/svg"
   xmlns:svg="http://www.w3.org/2000/svg"
   xmlns:rdf="http://www.w3.org/1999/02/22-rdf-syntax-ns#"
   xmlns:cc="http://creativecommons.org/ns#"
   xmlns:dc="http://purl.org/dc/elements/1.1/">
  <sodipodi:namedview
     id="namedview31"
     pagecolor="#ffffff"
     bordercolor="#666666"
     borderopacity="1.0"
     inkscape:pageshadow="2"
     inkscape:pageopacity="0.0"
     inkscape:pagecheckerboard="0"
     showgrid="false"
     inkscape:zoom="4.7578947"
     inkscape:cx="142.60509"
     inkscape:cy="67.151549"
     inkscape:window-width="1920"
     inkscape:window-height="1016"
     inkscape:window-x="0"
     inkscape:window-y="27"
     inkscape:window-maximized="1"
     inkscape:current-layer="Layer_1" />
  <defs
     id="defs4">
    <style
       id="style2">.cls-1{fill:#020202;}.cls-2{fill:#231f20;}</style>
  </defs>
  <title
     id="title6">SPAAM-Logo-Black</title>
  <path
     class="cls-1"
     d="M64.73,60.4a2.78,2.78,0,0,1-1.15-2.26,2.85,2.85,0,0,1,4.51-2.21,14.56,14.56,0,0,0,9.41,3.46c3.65,0,6-1.73,6-4.23v-.09c0-2.4-1.35-3.7-7.59-5.14-7.16-1.73-11.19-3.84-11.19-10V39.8c0-5.76,4.8-9.75,11.48-9.75a18.49,18.49,0,0,1,10.66,3.12,2.67,2.67,0,0,1,1.29,2.35,2.75,2.75,0,0,1-2.78,2.74,2.84,2.84,0,0,1-1.54-.43,14,14,0,0,0-7.73-2.55c-3.46,0-5.47,1.78-5.47,4v.1c0,2.59,1.53,3.74,8,5.28,7.1,1.73,10.75,4.27,10.75,9.84v.1c0,6.29-4.94,10-12,10A21,21,0,0,1,64.73,60.4Z"
     id="path8"
     style="fill:#ffffff" />
  <path
     class="cls-1"
     d="M98.73,33.51a2.94,2.94,0,0,1,3-3H112c7.88,0,12.78,4.47,12.78,11.24v.09c0,7.54-6.05,11.48-13.45,11.48h-6.67v8.11a3,3,0,0,1-5.91,0ZM111.5,48c4.47,0,7.25-2.5,7.25-6v-.1c0-3.94-2.83-6-7.25-6h-6.86V48Z"
     id="path10"
     style="fill:#ffffff" />
  <path
     class="cls-1"
     d="M128.6,60.3l12.49-27.85a3.74,3.74,0,0,1,3.55-2.4h.29a3.67,3.67,0,0,1,3.5,2.4L160.92,60.3a2.57,2.57,0,0,1,.33,1.25,2.76,2.76,0,0,1-2.78,2.83,3,3,0,0,1-2.88-2.06L152.85,56H136.52l-2.83,6.48A2.84,2.84,0,0,1,131,64.38a2.7,2.7,0,0,1-2.73-2.73A3,3,0,0,1,128.6,60.3Zm22-9.51-5.9-13.58-5.91,13.58Z"
     id="path12"
     style="fill:#ffffff" />
  <path
     class="cls-1"
     d="M168,60.3l12.49-27.85a3.74,3.74,0,0,1,3.55-2.4h.29a3.67,3.67,0,0,1,3.5,2.4L200.3,60.3a2.59,2.59,0,0,1,.34,1.25,2.76,2.76,0,0,1-2.79,2.83A3,3,0,0,1,195,62.32L192.23,56H175.9l-2.83,6.48a2.84,2.84,0,0,1-2.74,1.87,2.7,2.7,0,0,1-2.73-2.73A3,3,0,0,1,168,60.3Zm22-9.51-5.9-13.58-5.91,13.58Z"
     id="path14"
     style="fill:#ffffff" />
  <path
     class="cls-1"
     d="M209.43,33.32a3,3,0,0,1,3-3H213a3.09,3.09,0,0,1,2.73,1.58L226,47.87l10.22-16a3,3,0,0,1,2.69-1.53h.63a3,3,0,0,1,3,3V53a2.92,2.92,0,0,1-3,2.93A3,3,0,0,1,236.56,53V41.29l-8.21,12.34a2.77,2.77,0,0,1-4.95,0l-8.16-12.25V61.5a2.87,2.87,0,0,1-2.93,2.88,2.82,2.82,0,0,1-2.88-2.88Z"
     id="path16"
     style="fill:#ffffff" />
  <path
     class="cls-1"
     d="M183.5,125.41a2.56,2.56,0,0,1-2.56-2.57V88.71H14.65a2.57,2.57,0,0,1,0-5.14H183.5a2.57,2.57,0,0,1,2.57,2.57v30.92l36.32-32.83a2.6,2.6,0,0,1,1.72-.66h37.38V25.49a2.57,2.57,0,0,1,5.14,0V86.14a2.57,2.57,0,0,1-2.57,2.57h-39l-39.87,36A2.58,2.58,0,0,1,183.5,125.41Z"
     id="path18"
     style="fill:#ffffff" />
  <path
     class="cls-2"
     d="M37.9,37.08a5,5,0,1,1,5-5A5,5,0,0,1,37.9,37.08Zm0-6.76a1.76,1.76,0,1,0,1.76,1.76A1.76,1.76,0,0,0,37.9,30.32Z"
     id="path20"
     style="fill:#ffffff" />
  <path
     class="cls-2"
     d="M42.1,66.75a5,5,0,1,1,5-5A5,5,0,0,1,42.1,66.75Zm0-6.76a1.76,1.76,0,1,0,1.75,1.75A1.75,1.75,0,0,0,42.1,60Z"
     id="path22"
     style="fill:#ffffff" />
  <path
     class="cls-2"
     d="M239.9,69.63a5,5,0,1,1,5-5A5,5,0,0,1,239.9,69.63Zm0-6.76a1.76,1.76,0,1,0,1.75,1.75A1.76,1.76,0,0,0,239.9,62.87Z"
     id="path24"
     style="fill:#ffffff" />
  <path
     class="cls-2"
     d="M18,60.85a5,5,0,0,1-4.82-3.67,19.15,19.15,0,0,1,.18-11.56c2.22-6.25,7.83-10.11,12-11.52a5,5,0,0,1,3.24,9.44c-1.33.47-7.87,3.21-5.74,11A5,5,0,0,1,18,60.85Zm8.92-23.77a1.54,1.54,0,0,0-.56.1,16.43,16.43,0,0,0-9.93,9.53h0a15.84,15.84,0,0,0-.11,9.61,1.74,1.74,0,0,0,3.19.41,1.7,1.7,0,0,0,.16-1.32c-2.39-8.78,3.78-13.52,7.81-14.94a1.75,1.75,0,0,0,1.09-2.21,1.75,1.75,0,0,0-1.65-1.18Z"
     id="path26"
     style="fill:#ffffff" />
  <path
     class="cls-2"
     d="M31.93,57.72a4.89,4.89,0,0,1-2.73-.83A5,5,0,0,1,27.78,50a19.08,19.08,0,0,1,8.79-7.5h0c6.15-2.47,12.76-.82,16.54,1.35a5,5,0,0,1-4.94,8.67c-1.23-.69-7.61-3.78-12.06,3A5,5,0,0,1,33,57.62,5,5,0,0,1,31.93,57.72ZM43.18,44.48a14.43,14.43,0,0,0-5.4,1h0a15.86,15.86,0,0,0-7.29,6.27,1.73,1.73,0,0,0,.5,2.41,1.66,1.66,0,0,0,1.3.25,1.7,1.7,0,0,0,1.1-.74c5-7.6,12.65-6.1,16.37-4A1.76,1.76,0,0,0,52.14,49a1.74,1.74,0,0,0-.65-2.37A17.27,17.27,0,0,0,43.18,44.48Z"
     id="path28"
     style="fill:#ffffff" />
  <metadata
     id="metadata848">
    <rdf:RDF>
      <cc:Work
         rdf:about="">
        <dc:title>SPAAM-Logo-Black</dc:title>
      </cc:Work>
    </rdf:RDF>
  </metadata>
</svg>
