<?xml version="1.0" encoding="UTF-8" standalone="no"?>
<!-- Created with Inkscape (http://www.inkscape.org/) -->

<svg
   width="1920"
   height="965"
   viewBox="0 0 508 255.32292"
   version="1.1"
   id="svg1"
   inkscape:version="1.3.2 (1:1.3.2+202311252150+091e20ef0f)"
   sodipodi:docname="spaam-background-darkmode.svg"
   inkscape:export-filename="spaam-background-darkmode.png"
   inkscape:export-xdpi="96"
   inkscape:export-ydpi="96"
   xmlns:inkscape="http://www.inkscape.org/namespaces/inkscape"
   xmlns:sodipodi="http://sodipodi.sourceforge.net/DTD/sodipodi-0.dtd"
   xmlns="http://www.w3.org/2000/svg"
   xmlns:svg="http://www.w3.org/2000/svg">
  <sodipodi:namedview
     id="namedview1"
     pagecolor="#505050"
     bordercolor="#ffffff"
     borderopacity="1"
     inkscape:showpageshadow="0"
     inkscape:pageopacity="0"
     inkscape:pagecheckerboard="1"
     inkscape:deskcolor="#d1d1d1"
     inkscape:document-units="mm"
     showgrid="true"
     inkscape:zoom="0.50457247"
     inkscape:cx="1351.6393"
     inkscape:cy="932.47259"
     inkscape:current-layer="layer1">
    <inkscape:grid
       id="grid1"
       units="px"
       originx="0"
       originy="0"
       spacingx="0.26458333"
       spacingy="0.26458333"
       empcolor="#e50000"
       empopacity="0.30196078"
       color="#e50000"
       opacity="0.14901961"
       empspacing="5"
       dotted="true"
       gridanglex="30"
       gridanglez="30"
       visible="true" />
  </sodipodi:namedview>
  <defs
     id="defs1" />
  <g
     inkscape:label="Layer 1"
     inkscape:groupmode="layer"
     id="layer1">
    <path
       class="cls-1"
       d="m 397.08402,225.19894 a 1.0084883,1.0084883 0 0 1 1.21019,-1.60998 5.244139,5.244139 0 0 0 3.38924,1.24621 c 1.31464,0 2.16105,-0.62311 2.16105,-1.52354 v -0.0324 c 0,-0.86442 -0.48264,-1.33264 -2.73013,-1.85129 -2.57884,-0.6231 -4.03035,-1.38307 -4.03035,-3.60175 v -0.0468 c 0,-2.0746 1.72884,-3.5117 4.1312,-3.5117 a 6.663226,6.663226 0 0 1 3.84306,1.12374 0.96166559,0.96166559 0 0 1 0.46463,0.84641 0.99047955,0.99047955 0 0 1 -1.00129,0.98688 1.0228952,1.0228952 0 0 1 -0.55466,-0.15487 5.0424413,5.0424413 0 0 0 -2.78415,-0.91845 c -1.24621,0 -1.97376,0.64111 -1.97376,1.4407 v 0.036 c 0,0.93285 0.55467,1.34705 2.8814,1.90172 2.56084,0.6231 3.87547,1.53794 3.87547,3.54411 v 0.036 c 0,2.2655 -1.80087,3.60174 -4.32209,3.60174 a 7.5384498,7.5384498 0 0 1 -4.55981,-1.51273 z"
       id="path642"
       style="fill:#f9f9f9;stroke-width:0.360174" />
    <path
       class="cls-1"
       d="m 409.32995,215.51385 a 1.0553109,1.0553109 0 0 1 1.08053,-1.08052 h 3.70259 c 2.83817,0 4.59943,1.60998 4.59943,4.04836 v 0.0324 c 0,2.71571 -2.16105,4.1348 -4.84075,4.1348 h -2.40596 v 2.92101 a 1.0805231,1.0805231 0 0 1 -2.12503,0 z m 4.59943,5.21893 c 1.60998,0 2.61126,-0.90044 2.61126,-2.16105 v -0.036 c 0,-1.41909 -1.01929,-2.16105 -2.61126,-2.16105 h -2.4744 v 4.35811 z"
       id="path644"
       style="fill:#f9f9f9;stroke-width:0.360174" />
    <path
       class="cls-1"
       d="m 420.08836,225.16293 4.49498,-10.03086 a 1.3542557,1.3542557 0 0 1 1.28222,-0.86442 h 0.10445 a 1.32184,1.32184 0 0 1 1.26061,0.86442 l 4.49858,10.03086 a 0.92564816,0.92564816 0 0 1 0.11885,0.45021 0.99408129,0.99408129 0 0 1 -1.00128,1.0193 1.0805231,1.0805231 0 0 1 -1.0373,-0.74196 l -0.98688,-2.2763 h -5.88165 l -1.01929,2.33393 a 1.0228952,1.0228952 0 0 1 -0.98688,0.67352 0.97247083,0.97247083 0 0 1 -0.98688,-0.98327 1.0805231,1.0805231 0 0 1 0.14047,-0.47543 z m 7.92384,-3.42526 -2.12503,-4.89117 -2.12863,4.89117 z"
       id="path646"
       style="fill:#f9f9f9;stroke-width:0.360174" />
    <path
       class="cls-1"
       d="m 434.27203,225.16293 4.49858,-10.03086 a 1.3470522,1.3470522 0 0 1 1.27862,-0.86442 h 0.09 a 1.32184,1.32184 0 0 1 1.26061,0.86442 l 4.50218,10.03086 a 0.92564816,0.92564816 0 0 1 0.11886,0.45021 0.99408129,0.99408129 0 0 1 -1.00129,1.0193 1.0805231,1.0805231 0 0 1 -1.0373,-0.74196 l -0.96167,-2.2763 h -5.89605 l -1.01929,2.33393 a 1.0228952,1.0228952 0 0 1 -0.98688,0.67352 0.97247083,0.97247083 0 0 1 -0.98328,-0.98327 1.0805231,1.0805231 0 0 1 0.13687,-0.47543 z m 7.92383,-3.42526 -2.12502,-4.89117 -2.12863,4.89117 z"
       id="path648"
       style="fill:#f9f9f9;stroke-width:0.360174" />
    <path
       class="cls-1"
       d="m 449.19765,215.44542 a 1.0805231,1.0805231 0 0 1 1.08053,-1.08052 h 0.22691 a 1.1165406,1.1165406 0 0 1 0.98327,0.56907 l 3.66658,5.74478 3.68458,-5.76279 a 1.0805231,1.0805231 0 0 1 0.96887,-0.55106 h 0.22331 a 1.0805231,1.0805231 0 0 1 1.08052,1.08052 v 7.08823 a 1.0517092,1.0517092 0 0 1 -1.08052,1.05531 1.0805231,1.0805231 0 0 1 -1.05891,-1.05531 v -4.21764 l -2.96064,4.44455 a 0.99408129,0.99408129 0 0 1 -1.77926,0 l -2.92822,-4.41213 v 7.2467 a 1.0337005,1.0337005 0 0 1 -1.08052,1.03731 1.0192935,1.0192935 0 0 1 -1.0409,-1.03731 z"
       id="path650"
       style="fill:#f9f9f9;stroke-width:0.360174" />
    <path
       class="cls-1"
       d="m 439.86193,248.61388 a 0.92204641,0.92204641 0 0 1 -0.92204,-0.92565 v -12.29275 h -59.897 a 0.92565,0.92565 0 0 1 0,-1.8513 h 60.81904 a 0.92564816,0.92564816 0 0 1 0.92565,0.92565 v 11.13659 l 13.08154,-11.82452 a 0.9292499,0.9292499 0 0 1 0.6195,-0.23772 h 13.46331 v -20.91893 a 0.92565,0.92565 0 0 1 1.8513,0 v 21.84458 a 0.92564816,0.92564816 0 0 1 -0.92565,0.92565 h -14.0468 l -14.36375,12.96628 a 0.91124118,0.91124118 0 0 1 -0.6051,0.25212 z"
       id="path652"
       style="fill:#f9f9f9;stroke-width:0.360174" />
    <path
       d="m 460.17217,224.91801 a 1.8008719,1.8008719 0 1 0 1.80087,1.80087 1.8008719,1.8008719 0 0 0 -1.80087,-1.80087 z m 0,2.43478 a 0.63390691,0.63390691 0 1 1 0.6339,-0.63391 0.63030516,0.63030516 0 0 1 -0.6339,0.63391 z"
       id="path656"
       style="fill:#2ab675;fill-opacity:1;stroke-width:0.360174" />
    <path
       d="m 387.42055,213.19433 a 1.8008719,1.8008719 0 1 0 1.80087,1.80087 1.8008719,1.8008719 0 0 0 -1.80087,-1.80087 z m 0,2.43478 a 0.63390691,0.63390691 0 1 1 0.6339,-0.63031 0.63030516,0.63030516 0 0 1 -0.6339,0.63031 z"
       id="path660"
       style="fill:#ee4890;fill-opacity:1;stroke-width:0.360174" />
    <path
       d="m 388.93328,223.8807 a 1.8008719,1.8008719 0 1 0 1.80087,1.80088 1.8008719,1.8008719 0 0 0 -1.80087,-1.80088 z m 0,2.43478 a 0.63390691,0.63390691 0 1 1 0.6303,-0.6339 0.63390691,0.63390691 0 0 1 -0.6303,0.6339 z"
       id="path664"
       style="fill:#ffcc66;fill-opacity:1;stroke-width:0.360174" />
    <path
       d="m 385.14784,216.8501 a 1.8008719,1.8008719 0 0 0 -2.2763,-1.12374 c -1.49112,0.50784 -3.5081,1.89812 -4.32209,4.14921 a 6.8685254,6.8685254 0 0 0 -0.0648,4.16361 1.8008719,1.8008719 0 0 0 1.73604,1.32184 1.743244,1.743244 0 0 0 0.46823,-0.0612 1.8008719,1.8008719 0 0 0 1.26421,-2.20787 c -0.76717,-2.80936 1.58837,-3.79624 2.0674,-3.96192 a 1.8008719,1.8008719 0 0 0 1.12734,-2.2799 z m -1.49832,1.17057 c -1.4407,0.51144 -3.67378,2.21867 -2.81296,5.381 a 0.62670342,0.62670342 0 0 1 -0.0612,0.47543 0.61589819,0.61589819 0 0 1 -0.37819,0.29174 0.63030516,0.63030516 0 0 1 -0.76717,-0.43941 5.7051622,5.7051622 0 0 1 0.0432,-3.46127 v 0 a 5.9176651,5.9176651 0 0 1 3.55853,-3.43247 0.55466855,0.55466855 0 0 1 0.20169,-0.036 0.63750865,0.63750865 0 0 1 0.27734,0.0648 0.61949993,0.61949993 0 0 1 0.31335,0.36017 0.62670342,0.62670342 0 0 1 -0.37458,0.79599 z"
       id="path668"
       style="fill:#2ab675;fill-opacity:1;stroke-width:0.360174" />
    <path
       d="m 392.8988,219.23085 c -1.36506,-0.78158 -3.74221,-1.37946 -5.96089,-0.48623 a 6.8901359,6.8901359 0 0 0 -3.16593,2.70851 1.8008719,1.8008719 0 0 0 0.51145,2.4888 1.7756597,1.7756597 0 0 0 0.98687,0.29895 1.8008719,1.8008719 0 0 0 0.36018,-0.036 1.8008719,1.8008719 0 0 0 1.13815,-0.77437 c 1.60278,-2.43118 3.90069,-1.31824 4.32209,-1.08053 a 1.8023921,1.8023921 0 0 0 1.80087,-3.12271 z m -0.36018,1.86931 a 0.63390691,0.63390691 0 0 1 -0.85721,0.23411 c -1.34345,-0.74916 -4.09158,-1.28942 -5.89606,1.4407 a 0.63030516,0.63030516 0 0 1 -0.86802,0.17648 0.62670342,0.62670342 0 0 1 -0.17648,-0.86802 5.7123657,5.7123657 0 0 1 2.62567,-2.25829 5.1793076,5.1793076 0 0 1 1.94134,-0.36017 6.2238133,6.2238133 0 0 1 2.99665,0.78157 0.63030516,0.63030516 0 0 1 0.24492,0.84641 z"
       id="path672"
       style="fill:#74d1f6;fill-opacity:1;stroke-width:0.360174" />
    <path
       class="cls-1"
       d="m 476.22154,215.24372 a 0.21970637,0.21970637 0 0 1 -0.0864,-0.17288 0.20890114,0.20890114 0 0 1 0.2125,-0.2089 0.2052994,0.2052994 0 0 1 0.12966,0.0396 1.1165406,1.1165406 0 0 0 0.72035,0.26292 c 0.27734,0 0.45382,-0.12966 0.45382,-0.32055 v 0 c 0,-0.18369 -0.10445,-0.28454 -0.57988,-0.39259 -0.54386,-0.13327 -0.85361,-0.29534 -0.85361,-0.76717 v 0 a 0.78518015,0.78518015 0 0 1 0.87522,-0.74196 1.4010783,1.4010783 0 0 1 0.81399,0.23771 0.2052994,0.2052994 0 0 1 0.10085,0.18009 0.21250288,0.21250288 0 0 1 -0.2125,0.2089 0.21610463,0.21610463 0 0 1 -0.11886,-0.0324 1.0589127,1.0589127 0 0 0 -0.59068,-0.1945 c -0.26293,0 -0.41781,0.13327 -0.41781,0.30255 v 0 c 0,0.19809 0.11886,0.28454 0.6123,0.40339 0.49344,0.11886 0.8212,0.32416 0.8212,0.74917 v 0 c 0,0.48263 -0.36018,0.76717 -0.91484,0.76717 a 1.602776,1.602776 0 0 1 -0.96527,-0.32056 z"
       id="path674"
       style="fill:#f9f9f9;stroke-width:0.360174" />
    <path
       class="cls-1"
       d="m 478.65272,214.9916 v -1.01569 h -0.072 a 0.19089242,0.19089242 0 0 1 -0.19089,-0.19089 0.19089242,0.19089242 0 0 1 0.19089,-0.1909 h 0.072 v -0.33136 a 0.22330812,0.22330812 0 0 1 0.2233,-0.2197 0.21970637,0.21970637 0 0 1 0.21971,0.2197 v 0.33136 h 0.36017 a 0.19089242,0.19089242 0 0 1 0.1945,0.1909 0.19449417,0.19449417 0 0 1 -0.1945,0.19089 h -0.36017 v 0.94726 a 0.21250288,0.21250288 0 0 0 0.24132,0.24131 1.0300987,1.0300987 0 0 0 0.10805,0 0.18368893,0.18368893 0 0 1 0.18729,0.18369 0.19089242,0.19089242 0 0 1 -0.11886,0.17289 0.871622,0.871622 0 0 1 -0.30254,0.0504 0.49704064,0.49704064 0 0 1 -0.55827,-0.57988 z"
       id="path676"
       style="fill:#f9f9f9;stroke-width:0.360174" />
    <path
       class="cls-1"
       d="m 479.93854,214.96999 v 0 c 0,-0.4178 0.32776,-0.6231 0.79959,-0.6231 a 1.5199359,1.5199359 0 0 1 0.51865,0.0828 v -0.0504 c 0,-0.27373 -0.16568,-0.4178 -0.47904,-0.4178 a 1.1705667,1.1705667 0 0 0 -0.4286,0.0756 h -0.0684 a 0.18368893,0.18368893 0 0 1 -0.18729,-0.18369 0.19449417,0.19449417 0 0 1 0.12246,-0.17649 1.6568021,1.6568021 0 0 1 0.6195,-0.11165 0.85361328,0.85361328 0 0 1 0.64111,0.2161 0.79238364,0.79238364 0 0 1 0.2089,0.59789 v 0.95086 a 0.20890114,0.20890114 0 0 1 -0.2161,0.21251 0.20169765,0.20169765 0 0 1 -0.21611,-0.18729 v -0.072 a 0.78878189,0.78878189 0 0 1 -0.6303,0.28094 0.61949993,0.61949993 0 0 1 -0.68433,-0.59429 z m 1.32544,-0.13687 v -0.13326 a 1.2353981,1.2353981 0 0 0 -0.42501,-0.09 c -0.28453,0 -0.45382,0.11885 -0.45382,0.32055 v 0 c 0,0.18729 0.16568,0.29534 0.37819,0.29534 0.27733,0.0216 0.50064,-0.14767 0.50064,-0.39259 z"
       id="path678"
       style="fill:#f9f9f9;stroke-width:0.360174" />
    <path
       class="cls-1"
       d="m 482.21844,213.79582 a 0.21610463,0.21610463 0 0 1 0.21971,-0.22331 0.22330812,0.22330812 0 0 1 0.22331,0.22331 v 0.0936 a 0.69513655,0.69513655 0 0 1 0.60509,-0.33497 0.66272086,0.66272086 0 0 1 0.68793,0.73836 v 1.0373 a 0.22330812,0.22330812 0 0 1 -0.44301,0 v -0.90043 c 0,-0.30255 -0.15128,-0.47183 -0.4142,-0.47183 a 0.42860751,0.42860751 0 0 0 -0.43581,0.47903 v 0.89323 a 0.21970637,0.21970637 0 0 1 -0.22331,0.21971 0.21610463,0.21610463 0 0 1 -0.21971,-0.21971 z"
       id="path680"
       style="fill:#f9f9f9;stroke-width:0.360174" />
    <path
       class="cls-1"
       d="m 486.38926,215.33016 a 0.22330812,0.22330812 0 0 1 -0.44301,0 v -0.12245 a 0.77797666,0.77797666 0 0 1 -0.65912,0.36017 0.9292499,0.9292499 0 0 1 -0.89684,-1.00489 v 0 a 0.92204641,0.92204641 0 0 1 0.89684,-1.00128 0.79238364,0.79238364 0 0 1 0.65912,0.33856 v -0.84641 a 0.22330812,0.22330812 0 0 1 0.44301,0 z m -1.55235,-0.77077 v 0 a 0.57627901,0.57627901 0 0 0 0.55467,0.6195 0.5834825,0.5834825 0 0 0 0.56187,-0.6195 v 0 a 0.5834825,0.5834825 0 0 0 -0.56187,-0.6195 0.56907552,0.56907552 0 0 0 -0.55467,0.6159 z"
       id="path682"
       style="fill:#f9f9f9;stroke-width:0.360174" />
    <path
       class="cls-1"
       d="m 486.81787,214.96999 v 0 c 0,-0.4178 0.32416,-0.6231 0.79959,-0.6231 a 1.5343429,1.5343429 0 0 1 0.51865,0.0828 v -0.0504 c 0,-0.27373 -0.16929,-0.4178 -0.47903,-0.4178 a 1.1561598,1.1561598 0 0 0 -0.42861,0.0756 0.24852032,0.24852032 0 0 1 -0.072,0 0.18368893,0.18368893 0 0 1 -0.18369,-0.18369 0.19449417,0.19449417 0 0 1 0.11886,-0.17649 1.6892178,1.6892178 0 0 1 0.6231,-0.11165 0.86441851,0.86441851 0 0 1 0.64111,0.2161 0.79238364,0.79238364 0 0 1 0.2089,0.59789 v 0.95086 a 0.21250288,0.21250288 0 0 1 -0.2161,0.21251 0.19809591,0.19809591 0 0 1 -0.2161,-0.18729 v -0.072 a 0.79958712,0.79958712 0 0 1 -0.63031,0.28094 0.61589819,0.61589819 0 0 1 -0.68433,-0.59429 z m 1.32544,-0.13687 v -0.13326 a 1.2498051,1.2498051 0 0 0 -0.43941,-0.0756 c -0.28454,0 -0.45382,0.11886 -0.45382,0.32056 v 0 c 0,0.18729 0.16568,0.29534 0.37818,0.29534 0.29174,0.007 0.51505,-0.16208 0.51505,-0.407 z"
       id="path684"
       style="fill:#f9f9f9;stroke-width:0.360174" />
    <path
       class="cls-1"
       d="m 489.09417,213.79582 a 0.22330812,0.22330812 0 1 1 0.44302,0 v 0.1981 a 0.61949993,0.61949993 0 0 1 0.48983,-0.42501 0.2052994,0.2052994 0 0 1 0.21971,0.21971 0.21250288,0.21250288 0 0 1 -0.17649,0.2125 c -0.31695,0.054 -0.53305,0.29534 -0.53305,0.75277 v 0.57627 a 0.21970637,0.21970637 0 0 1 -0.22331,0.21971 0.21970637,0.21970637 0 0 1 -0.21971,-0.21971 z"
       id="path686"
       style="fill:#f9f9f9;stroke-width:0.360174" />
    <path
       class="cls-1"
       d="m 492.4546,215.33016 a 0.22511,0.22511 0 0 1 -0.45022,0 v -0.12245 a 0.77797666,0.77797666 0 0 1 -0.65912,0.36017 0.9292499,0.9292499 0 0 1 -0.90044,-1.00489 v 0 a 0.92204641,0.92204641 0 0 1 0.90044,-1.00128 0.79238364,0.79238364 0 0 1 0.65912,0.32776 v -0.83561 a 0.21970637,0.21970637 0 0 1 0.21971,-0.2197 0.21970637,0.21970637 0 0 1 0.2233,0.2197 z m -1.55235,-0.77077 v 0 a 0.57627901,0.57627901 0 0 0 0.55466,0.6195 0.5834825,0.5834825 0 0 0 0.54747,-0.6159 v 0 a 0.5834825,0.5834825 0 0 0 -0.56187,-0.6195 0.56907552,0.56907552 0 0 0 -0.54026,0.6123 z"
       id="path688"
       style="fill:#f9f9f9;stroke-width:0.360174" />
    <path
       class="cls-1"
       d="m 492.93723,215.33016 a 0.1728837,0.1728837 0 0 1 -0.0864,-0.15487 0.18008719,0.18008719 0 0 1 0.18009,-0.18009 0.1728837,0.1728837 0 0 1 0.0972,0.0288 1.026497,1.026497 0 0 0 0.55467,0.18369 c 0.19089,0 0.30255,-0.0792 0.30255,-0.20891 v 0 c 0,-0.14767 -0.2053,-0.20169 -0.43221,-0.27013 -0.28814,-0.0792 -0.60509,-0.19809 -0.60509,-0.56907 v 0 a 0.61589819,0.61589819 0 0 1 0.68793,-0.58709 1.3506539,1.3506539 0 0 1 0.60869,0.15488 0.19449417,0.19449417 0 0 1 0.10445,0.16928 0.18368893,0.18368893 0 0 1 -0.27013,0.15848 1.0805231,1.0805231 0 0 0 -0.45382,-0.13327 c -0.17288,0 -0.27013,0.0828 -0.27013,0.1909 v 0 c 0,0.14406 0.2089,0.20169 0.43581,0.27733 0.28094,0.0864 0.6015,0.2161 0.6015,0.56187 v 0 c 0,0.407 -0.31696,0.6087 -0.72035,0.6087 a 1.3110347,1.3110347 0 0 1 -0.73476,-0.23052 z"
       id="path690"
       style="fill:#f9f9f9;stroke-width:0.360174" />
    <path
       class="cls-1"
       d="m 494.75971,215.85602 a 0.31335171,0.31335171 0 0 0 0.24852,-0.32776 0.27013079,0.27013079 0 0 1 -0.2089,-0.24852 v -0.0288 a 0.24131683,0.24131683 0 0 1 0.25213,-0.24852 c 0.16207,0 0.26292,0.12606 0.26292,0.32415 v 0.0396 a 0.74556097,0.74556097 0 0 1 -0.18008,0.53666 0.56547378,0.56547378 0 0 1 -0.36018,0.15488 0.10084883,0.10084883 0 0 1 -0.11165,-0.10085 0.10445057,0.10445057 0 0 1 0.0972,-0.10085 z"
       id="path692"
       style="fill:#f9f9f9;stroke-width:0.360174" />
    <path
       class="cls-1"
       d="m 476.28997,217.58486 a 0.22330812,0.22330812 0 0 1 0.22691,-0.22691 h 0.78158 c 0.60149,0 0.97607,0.34216 0.97607,0.85721 v 0 c 0,0.57628 -0.46102,0.87523 -1.02649,0.87523 h -0.50785 v 0.6195 a 0.22690986,0.22690986 0 0 1 -0.45022,0 z m 0.97247,1.10573 c 0.34217,0 0.55467,-0.19089 0.55467,-0.45742 v 0 c 0,-0.29894 -0.2161,-0.45742 -0.55467,-0.45742 h -0.52225 v 0.92204 z"
       id="path694"
       style="fill:#f9f9f9;stroke-width:0.360174" />
    <path
       class="cls-1"
       d="m 478.67793,218.18995 a 0.21610463,0.21610463 0 0 1 0.2197,-0.22331 0.22330812,0.22330812 0 0 1 0.22331,0.22331 v 0.1981 a 0.61229645,0.61229645 0 0 1 0.48624,-0.42501 0.2052994,0.2052994 0 0 1 0.2197,0.21971 0.20890114,0.20890114 0 0 1 -0.17648,0.2125 c -0.31335,0.054 -0.52946,0.29534 -0.52946,0.75276 v 0.57268 a 0.21970637,0.21970637 0 0 1 -0.22331,0.21971 0.21610463,0.21610463 0 0 1 -0.2197,-0.21971 z"
       id="path696"
       style="fill:#f9f9f9;stroke-width:0.360174" />
    <path
       class="cls-1"
       d="m 481.01546,219.96561 a 0.96526734,0.96526734 0 0 1 -0.99048,-1.00129 v 0 a 0.96166559,0.96166559 0 0 1 0.94366,-1.00848 0.91124118,0.91124118 0 0 1 0.91844,0.95086 0.2052994,0.2052994 0 0 1 -0.2089,0.2125 h -1.19938 a 0.54026157,0.54026157 0 0 0 0.55467,0.49344 0.6987383,0.6987383 0 0 0 0.45742,-0.16928 0.18008719,0.18008719 0 0 1 0.11526,-0.0396 0.1728837,0.1728837 0 0 1 0.17648,0.17648 0.19089242,0.19089242 0 0 1 -0.0576,0.13687 0.99408129,0.99408129 0 0 1 -0.70954,0.24852 z m 0.43941,-1.14536 a 0.50064239,0.50064239 0 0 0 -0.48983,-0.50784 0.51865111,0.51865111 0 0 0 -0.48624,0.50784 z"
       id="path698"
       style="fill:#f9f9f9;stroke-width:0.360174" />
    <path
       class="cls-1"
       d="m 482.23645,218.96793 v 0 a 0.99768303,0.99768303 0 0 1 1.00489,-1.01209 0.97967431,0.97967431 0 0 1 0.68073,0.24131 0.20890114,0.20890114 0 0 1 0.0684,0.15488 0.20169765,0.20169765 0 0 1 -0.2053,0.2017 0.24491858,0.24491858 0 0 1 -0.13326,-0.0468 0.61589819,0.61589819 0 0 0 -0.4142,-0.16208 0.57988075,0.57988075 0 0 0 -0.55827,0.6123 v 0 a 0.5834825,0.5834825 0 0 0 0.57988,0.6159 0.65911912,0.65911912 0 0 0 0.43221,-0.16928 0.18368893,0.18368893 0 0 1 0.30975,0.14407 0.1728837,0.1728837 0 0 1 -0.0612,0.14046 0.94725862,0.94725862 0 0 1 -0.72035,0.27374 0.9868778,0.9868778 0 0 1 -0.98328,-0.99408 z"
       id="path700"
       style="fill:#f9f9f9;stroke-width:0.360174" />
    <path
       class="cls-1"
       d="m 484.30385,219.36412 v 0 c 0,-0.4178 0.32776,-0.6231 0.79959,-0.6231 a 1.6099795,1.6099795 0 0 1 0.51865,0.0828 v -0.0468 c 0,-0.27733 -0.16568,-0.4214 -0.47903,-0.4214 a 1.1705667,1.1705667 0 0 0 -0.42861,0.0756 h -0.0684 a 0.18368893,0.18368893 0 0 1 -0.18729,-0.18369 0.19809591,0.19809591 0 0 1 0.12246,-0.17649 1.6568021,1.6568021 0 0 1 0.6195,-0.11165 0.85361328,0.85361328 0 0 1 0.64111,0.2161 0.79598538,0.79598538 0 0 1 0.2089,0.59789 v 0.95086 a 0.20890114,0.20890114 0 0 1 -0.21611,0.2125 0.20169765,0.20169765 0 0 1 -0.2161,-0.18729 v -0.072 a 0.77797666,0.77797666 0 0 1 -0.63031,0.28094 0.61949993,0.61949993 0 0 1 -0.68433,-0.59429 z m 1.32544,-0.13687 v -0.13326 a 1.2353981,1.2353981 0 0 0 -0.43941,-0.0756 c -0.28454,0 -0.45382,0.11886 -0.45382,0.32056 v 0 c 0,0.18729 0.16568,0.29534 0.37818,0.29534 0.29175,0.018 0.51505,-0.16208 0.51505,-0.407 z"
       id="path702"
       style="fill:#f9f9f9;stroke-width:0.360174" />
    <path
       class="cls-1"
       d="m 488.30179,219.72069 a 0.21970637,0.21970637 0 0 1 -0.22331,0.21971 0.21970637,0.21970637 0 0 1 -0.22331,-0.21971 v -0.0973 a 0.72034876,0.72034876 0 0 1 -0.60509,0.33857 0.66272086,0.66272086 0 0 1 -0.68794,-0.74196 v -1.0301 a 0.21970637,0.21970637 0 0 1 0.21971,-0.22331 0.22330812,0.22330812 0 0 1 0.22331,0.22331 v 0.89683 c 0,0.29895 0.14767,0.46823 0.4142,0.46823 a 0.42860751,0.42860751 0 0 0 0.43581,-0.47543 v -0.88963 a 0.21970637,0.21970637 0 0 1 0.22331,-0.22331 0.22330812,0.22330812 0 0 1 0.22331,0.22331 z"
       id="path704"
       style="fill:#f9f9f9;stroke-width:0.360174" />
    <path
       class="cls-1"
       d="m 488.9465,219.38573 v -1.01569 h -0.0756 a 0.19089242,0.19089242 0 0 1 -0.19089,-0.1909 0.19089242,0.19089242 0 0 1 0.19089,-0.19089 h 0.0756 v -0.33136 a 0.22330812,0.22330812 0 0 1 0.44301,0 v 0.33136 h 0.36018 a 0.19089242,0.19089242 0 0 1 0.19449,0.19089 0.19449417,0.19449417 0 0 1 -0.19449,0.1909 h -0.36018 v 0.94725 a 0.20890114,0.20890114 0 0 0 0.23772,0.24132 1.0300987,1.0300987 0 0 0 0.10805,0 0.18729068,0.18729068 0 0 1 0.18729,0.18369 0.19449417,0.19449417 0 0 1 -0.11525,0.17288 0.90763944,0.90763944 0 0 1 -0.30615,0.0504 0.49704064,0.49704064 0 0 1 -0.55467,-0.57988 z"
       id="path706"
       style="fill:#f9f9f9;stroke-width:0.360174" />
    <path
       class="cls-1"
       d="m 490.35118,217.4696 a 0.25572381,0.25572381 0 0 1 0.50424,0 v 0.0216 a 0.25572381,0.25572381 0 0 1 -0.50424,0 z m 0.0324,0.72035 a 0.22330812,0.22330812 0 1 1 0.44301,0 v 1.53074 a 0.22330812,0.22330812 0 0 1 -0.44301,0 z"
       id="path708"
       style="fill:#f9f9f9;stroke-width:0.360174" />
    <path
       class="cls-1"
       d="m 491.28403,218.96793 v 0 a 1.0337005,1.0337005 0 0 1 2.0638,0 v 0 a 1.01209,1.01209 0 0 1 -1.0373,1.00488 1.0012848,1.0012848 0 0 1 -1.0265,-1.00488 z m 1.62079,0 v 0 a 0.59788947,0.59788947 0 0 0 -0.59429,-0.62311 0.57988075,0.57988075 0 0 0 -0.58348,0.6123 v 0 a 0.59788947,0.59788947 0 0 0 0.59068,0.6159 0.57988075,0.57988075 0 0 0 0.60149,-0.60509 z"
       id="path710"
       style="fill:#f9f9f9;stroke-width:0.360174" />
    <path
       class="cls-1"
       d="m 493.80525,218.18995 a 0.21610463,0.21610463 0 0 1 0.21971,-0.22331 0.22330812,0.22330812 0 0 1 0.22331,0.22331 v 0.0936 a 0.72034876,0.72034876 0 0 1 0.60509,-0.33496 0.66272086,0.66272086 0 0 1 0.68793,0.72035 v 1.0337 a 0.22330812,0.22330812 0 0 1 -0.44301,0 v -0.87882 c 0,-0.30255 -0.15128,-0.47183 -0.4142,-0.47183 a 0.43220926,0.43220926 0 0 0 -0.43581,0.47903 v 0.88963 a 0.21970637,0.21970637 0 0 1 -0.22331,0.21971 0.21610463,0.21610463 0 0 1 -0.21971,-0.21971 z"
       id="path712"
       style="fill:#f9f9f9;stroke-width:0.360174" />
    <path
       class="cls-1"
       d="m 496.00952,219.72789 a 0.16928196,0.16928196 0 0 1 -0.0828,-0.15487 0.1728837,0.1728837 0 0 1 0.17648,-0.17649 0.19449417,0.19449417 0 0 1 0.0972,0.0252 1.040904,1.040904 0 0 0 0.55467,0.18729 c 0.19089,0 0.30255,-0.0828 0.30255,-0.2089 v 0 c 0,-0.15128 -0.2053,-0.2017 -0.43221,-0.27374 -0.28814,-0.0792 -0.6051,-0.19809 -0.6051,-0.56547 v 0 a 0.61589819,0.61589819 0 0 1 0.68794,-0.59069 1.3110347,1.3110347 0 0 1 0.60869,0.15848 0.18368893,0.18368893 0 0 1 0.10445,0.16568 0.18368893,0.18368893 0 0 1 -0.27013,0.15848 1.0805231,1.0805231 0 0 0 -0.45382,-0.13327 c -0.17288,0 -0.27013,0.0828 -0.27013,0.19089 v 0 c 0,0.14407 0.2089,0.2017 0.43581,0.27734 0.22691,0.0756 0.60149,0.2161 0.60149,0.56187 v 0 c 0,0.407 -0.31695,0.6087 -0.72035,0.6087 a 1.3110347,1.3110347 0 0 1 -0.73475,-0.23052 z"
       id="path714"
       style="fill:#f9f9f9;stroke-width:0.360174" />
    <path
       class="cls-1"
       d="m 500.77823,219.88997 -0.26653,-0.27013 a 1.1165406,1.1165406 0 0 1 -0.79239,0.33857 0.7563662,0.7563662 0 0 1 -0.8392,-0.72035 v 0 a 0.77077317,0.77077317 0 0 1 0.54746,-0.72035 0.8139941,0.8139941 0 0 1 -0.2125,-0.53306 v 0 a 0.66992435,0.66992435 0 0 1 0.72035,-0.64471 0.63030516,0.63030516 0 0 1 0.71314,0.59429 v 0 c 0,0.33496 -0.2233,0.53666 -0.55827,0.66632 l 0.43582,0.44301 a 3.5225054,3.5225054 0 0 0 0.2125,-0.36017 0.18729068,0.18729068 0 0 1 0.16568,-0.10445 0.19449417,0.19449417 0 0 1 0.19449,0.19089 0.2305116,0.2305116 0 0 1 -0.0252,0.0973 3.9619182,3.9619182 0 0 1 -0.27733,0.45021 l 0.28453,0.28814 a 0.20169765,0.20169765 0 0 1 0.072,0.15128 0.19449417,0.19449417 0 0 1 -0.1981,0.2017 0.20169765,0.20169765 0 0 1 -0.17648,-0.0684 z m -0.52946,-0.53306 -0.56907,-0.57988 a 0.48263367,0.48263367 0 0 0 -0.36018,0.42861 v 0 a 0.38898833,0.38898833 0 0 0 0.42861,0.36018 0.6987383,0.6987383 0 0 0 0.50064,-0.20891 z m -0.018,-1.39027 v 0 a 0.27373253,0.27373253 0 0 0 -0.28814,-0.28814 0.29174125,0.29174125 0 0 0 -0.30615,0.30615 v 0 a 0.54746506,0.54746506 0 0 0 0.1909,0.38178 c 0.26653,-0.0972 0.40339,-0.2125 0.40339,-0.39979 z"
       id="path716"
       style="fill:#f9f9f9;stroke-width:0.360174" />
    <path
       class="cls-1"
       d="m 476.15671,224.02477 0.95086,-2.12502 a 0.2881395,0.2881395 0 0 1 0.27373,-0.18369 h 0.0216 a 0.28093602,0.28093602 0 0 1 0.26653,0.18369 l 0.95086,2.12502 a 0.19449417,0.19449417 0 0 1 0.0252,0.0936 0.20890114,0.20890114 0 0 1 -0.2125,0.2161 0.23411335,0.23411335 0 0 1 -0.21971,-0.15847 l -0.2053,-0.47903 h -1.2462 l -0.2161,0.49704 a 0.21610463,0.21610463 0 0 1 -0.20891,0.14046 0.2052994,0.2052994 0 0 1 -0.2089,-0.2089 0.22690986,0.22690986 0 0 1 0.0288,-0.10085 z m 1.67841,-0.72034 -0.45022,-1.03371 -0.45022,1.03371 z"
       id="path718"
       style="fill:#f9f9f9;stroke-width:0.360174" />
    <path
       class="cls-1"
       d="m 480.91461,224.11482 a 0.22330812,0.22330812 0 0 1 -0.44301,0 v -0.11886 a 0.77437492,0.77437492 0 0 1 -0.65912,0.36017 0.92564816,0.92564816 0 0 1 -0.89684,-1.00128 v 0 a 0.92564816,0.92564816 0 0 1 0.89684,-1.00489 0.79598538,0.79598538 0 0 1 0.65912,0.36018 v -0.86442 a 0.21610463,0.21610463 0 0 1 0.2197,-0.21971 0.21970637,0.21970637 0 0 1 0.22331,0.21971 z m -1.55235,-0.76717 v 0 a 0.57627901,0.57627901 0 0 0 0.55467,0.6267 0.5834825,0.5834825 0 0 0 0.56187,-0.6195 v 0 a 0.57988075,0.57988075 0 0 0 -0.56187,-0.6195 0.56547378,0.56547378 0 0 0 -0.55467,0.6123 z"
       id="path720"
       style="fill:#f9f9f9;stroke-width:0.360174" />
    <path
       class="cls-1"
       d="m 482.27967,224.35253 h -0.0216 a 0.27013079,0.27013079 0 0 1 -0.25212,-0.19449 l -0.64471,-1.47311 a 0.38898833,0.38898833 0 0 1 -0.0252,-0.11166 0.22330812,0.22330812 0 0 1 0.43942,-0.0504 l 0.50424,1.28222 0.50425,-1.28943 a 0.22330812,0.22330812 0 0 1 0.2089,-0.15487 0.20890114,0.20890114 0 0 1 0.2161,0.2125 0.29894474,0.29894474 0 0 1 -0.0252,0.10805 l -0.64471,1.47672 a 0.27373253,0.27373253 0 0 1 -0.25933,0.19449 z"
       id="path722"
       style="fill:#f9f9f9;stroke-width:0.360174" />
    <path
       class="cls-1"
       d="m 483.43223,223.76185 v 0 c 0,-0.4142 0.32776,-0.6195 0.79959,-0.6195 a 1.6207847,1.6207847 0 0 1 0.51865,0.0792 v -0.0468 c 0,-0.27733 -0.16568,-0.4214 -0.47903,-0.4214 a 1.1705667,1.1705667 0 0 0 -0.42861,0.0756 h -0.0684 a 0.18368893,0.18368893 0 0 1 -0.1873,-0.18369 0.18729068,0.18729068 0 0 1 0.12246,-0.17289 1.5847673,1.5847673 0 0 1 0.6195,-0.11525 0.85361328,0.85361328 0 0 1 0.64111,0.2161 0.80318887,0.80318887 0 0 1 0.20891,0.59789 v 0.95086 a 0.20890114,0.20890114 0 0 1 -0.21611,0.2125 0.20169765,0.20169765 0 0 1 -0.2161,-0.18729 v -0.072 a 0.77797666,0.77797666 0 0 1 -0.63031,0.28093 0.61949993,0.61949993 0 0 1 -0.68433,-0.59428 z m 1.32544,-0.14047 v -0.13327 a 1.2353981,1.2353981 0 0 0 -0.43941,-0.0756 c -0.28454,0 -0.45382,0.11886 -0.45382,0.32055 v 0 c 0,0.18729 0.16568,0.29535 0.37818,0.29535 0.29174,0.007 0.51505,-0.16208 0.51505,-0.4142 z"
       id="path724"
       style="fill:#f9f9f9;stroke-width:0.360174" />
    <path
       class="cls-1"
       d="m 485.71213,222.58408 a 0.21610463,0.21610463 0 0 1 0.21971,-0.22331 0.22330812,0.22330812 0 0 1 0.22331,0.22331 v 0.0972 a 0.69513655,0.69513655 0 0 1 0.60509,-0.33856 0.66272086,0.66272086 0 0 1 0.68793,0.73836 v 1.0337 a 0.22330812,0.22330812 0 0 1 -0.44301,0 v -0.89684 c 0,-0.29894 -0.15127,-0.47182 -0.4142,-0.47182 a 0.43220926,0.43220926 0 0 0 -0.43581,0.47903 v 0.88963 a 0.21970637,0.21970637 0 0 1 -0.22331,0.2197 0.21610463,0.21610463 0 0 1 -0.21971,-0.2197 z"
       id="path726"
       style="fill:#f9f9f9;stroke-width:0.360174" />
    <path
       class="cls-1"
       d="m 487.87678,223.36205 v 0 a 0.99768303,0.99768303 0 0 1 1.00489,-1.01209 0.96166559,0.96166559 0 0 1 0.67713,0.24132 0.19809591,0.19809591 0 0 1 0.072,0.15488 0.2052994,0.2052994 0 0 1 -0.2053,0.20169 0.21250288,0.21250288 0 0 1 -0.13326,-0.0468 0.61589819,0.61589819 0 0 0 -0.4142,-0.16208 0.5834825,0.5834825 0 0 0 -0.55827,0.6159 v 0 a 0.58708424,0.58708424 0 0 0 0.57627,0.6195 0.64831388,0.64831388 0 0 0 0.43221,-0.17288 0.21250288,0.21250288 0 0 1 0.12246,-0.0504 0.19449417,0.19449417 0 0 1 0.1909,0.1945 0.1728837,0.1728837 0 0 1 -0.0612,0.14046 0.94725862,0.94725862 0 0 1 -0.72035,0.27374 0.9868778,0.9868778 0 0 1 -0.98328,-0.99769 z"
       id="path728"
       style="fill:#f9f9f9;stroke-width:0.360174" />
    <path
       class="cls-1"
       d="m 490.92386,224.35974 a 0.96526734,0.96526734 0 0 1 -0.99408,-1.00129 v 0 a 0.96166559,0.96166559 0 0 1 0.94365,-1.00849 0.91484293,0.91484293 0 0 1 0.92205,0.95086 0.20890114,0.20890114 0 0 1 -0.2089,0.21251 h -1.21379 a 0.54026157,0.54026157 0 0 0 0.55107,0.48623 0.72034876,0.72034876 0 0 0 0.45742,-0.16928 0.16207847,0.16207847 0 0 1 0.11165,-0.0396 0.1728837,0.1728837 0 0 1 0.15128,0.18369 0.19089242,0.19089242 0 0 1 -0.0576,0.13687 0.99047955,0.99047955 0 0 1 -0.66272,0.24852 z m 0.43941,-1.14536 a 0.50424413,0.50424413 0 0 0 -0.49344,-0.50784 0.52225285,0.52225285 0 0 0 -0.50064,0.50784 z"
       id="path730"
       style="fill:#f9f9f9;stroke-width:0.360174" />
    <path
       class="cls-1"
       d="m 492.15565,224.12202 a 0.16928196,0.16928196 0 0 1 -0.0828,-0.15487 0.17648545,0.17648545 0 0 1 0.18009,-0.17649 0.19089242,0.19089242 0 0 1 0.0936,0.0252 1.0445057,1.0445057 0 0 0 0.55827,0.18729 c 0.19089,0 0.29894,-0.0828 0.29894,-0.2089 v 0 c 0,-0.15127 -0.2053,-0.2017 -0.43221,-0.27373 -0.28454,-0.0792 -0.60509,-0.1981 -0.60509,-0.56547 v 0 a 0.61949993,0.61949993 0 0 1 0.68793,-0.59069 1.3110347,1.3110347 0 0 1 0.6087,0.15848 0.18368893,0.18368893 0 0 1 0.10805,0.16568 0.18008719,0.18008719 0 0 1 -0.18369,0.18008 0.1728837,0.1728837 0 0 1 -0.0864,-0.0216 1.0805231,1.0805231 0 0 0 -0.45742,-0.12966 c -0.16929,0 -0.27013,0.0792 -0.27013,0.18729 v 0 c 0,0.14047 0.2089,0.1981 0.43581,0.27373 0.28453,0.0864 0.60149,0.21611 0.60149,0.56188 v 0 c 0,0.40699 -0.31335,0.60869 -0.72035,0.60869 a 1.32184,1.32184 0 0 1 -0.73476,-0.22691 z"
       id="path732"
       style="fill:#f9f9f9;stroke-width:0.360174" />
    <path
       class="cls-1"
       d="m 495.15591,221.86373 a 0.25572381,0.25572381 0 0 1 0.50424,0 v 0.0216 a 0.25572381,0.25572381 0 0 1 -0.50424,0 z m 0.0324,0.72035 a 0.22330812,0.22330812 0 1 1 0.44302,0 v 1.53074 a 0.22330812,0.22330812 0 0 1 -0.44302,0 z"
       id="path734"
       style="fill:#f9f9f9;stroke-width:0.360174" />
    <path
       class="cls-1"
       d="m 496.21122,222.58408 a 0.21610463,0.21610463 0 0 1 0.2197,-0.22331 0.22330812,0.22330812 0 0 1 0.22331,0.22331 v 0.0972 a 0.69513655,0.69513655 0 0 1 0.60509,-0.33856 0.66272086,0.66272086 0 0 1 0.68794,0.73836 v 1.0337 a 0.22330812,0.22330812 0 0 1 -0.44302,0 v -0.89684 c 0,-0.29894 -0.15127,-0.47182 -0.4142,-0.47182 a 0.43220926,0.43220926 0 0 0 -0.43581,0.47903 v 0.88963 a 0.21970637,0.21970637 0 0 1 -0.22331,0.2197 0.21610463,0.21610463 0 0 1 -0.2197,-0.2197 z"
       id="path736"
       style="fill:#f9f9f9;stroke-width:0.360174" />
    <path
       class="cls-1"
       d="m 476.15671,228.4189 0.95086,-2.12503 a 0.2881395,0.2881395 0 0 1 0.27373,-0.18369 h 0.0216 a 0.28093602,0.28093602 0 0 1 0.26653,0.18369 l 0.95086,2.12503 a 0.19449417,0.19449417 0 0 1 0.0252,0.0936 0.20890114,0.20890114 0 0 1 -0.2125,0.2161 0.23771509,0.23771509 0 0 1 -0.21971,-0.15487 l -0.2053,-0.48264 h -1.2462 l -0.2161,0.49704 a 0.21610463,0.21610463 0 0 1 -0.20891,0.14047 0.2052994,0.2052994 0 0 1 -0.2089,-0.2089 0.22690986,0.22690986 0 0 1 0.0288,-0.10085 z m 1.67841,-0.72035 -0.45022,-1.0373 -0.45022,1.0373 z"
       id="path738"
       style="fill:#f9f9f9;stroke-width:0.360174" />
    <path
       class="cls-1"
       d="m 479.06692,226.9782 a 0.22330812,0.22330812 0 1 1 0.44301,0 v 0.0973 a 0.72034876,0.72034876 0 0 1 0.60509,-0.33856 0.66272086,0.66272086 0 0 1 0.68794,0.74196 v 1.0301 a 0.21250288,0.21250288 0 0 1 -0.21971,0.2197 0.21970637,0.21970637 0 0 1 -0.22331,-0.2197 v -0.89684 c 0,-0.29894 -0.14767,-0.47183 -0.4142,-0.47183 a 0.43220926,0.43220926 0 0 0 -0.43581,0.47903 v 0.88964 a 0.22330812,0.22330812 0 0 1 -0.44301,0 z"
       id="path740"
       style="fill:#f9f9f9;stroke-width:0.360174" />
    <path
       class="cls-1"
       d="m 481.23156,227.75618 v 0 a 1.026497,1.026497 0 0 1 1.68562,-0.77077 0.21610463,0.21610463 0 0 1 0.0684,0.15487 0.20169765,0.20169765 0 0 1 -0.2053,0.2017 0.22330812,0.22330812 0 0 1 -0.12966,-0.0432 0.6086947,0.6086947 0 0 0 -0.4142,-0.16568 0.5834825,0.5834825 0 0 0 -0.56187,0.6159 v 0 a 0.58708424,0.58708424 0 0 0 0.57988,0.6195 0.65551737,0.65551737 0 0 0 0.43221,-0.17289 0.18729068,0.18729068 0 0 1 0.30975,0.14767 0.16928196,0.16928196 0 0 1 -0.0612,0.13687 0.94365688,0.94365688 0 0 1 -0.70234,0.27373 0.9868778,0.9868778 0 0 1 -1.00129,-0.99768 z"
       id="path742"
       style="fill:#f9f9f9;stroke-width:0.360174" />
    <path
       class="cls-1"
       d="m 483.42142,226.25786 a 0.25572381,0.25572381 0 0 1 0.50785,0 v 0.0216 a 0.25572381,0.25572381 0 0 1 -0.50785,0 z m 0.0324,0.72034 a 0.22330812,0.22330812 0 1 1 0.44301,0 v 1.53075 a 0.22330812,0.22330812 0 0 1 -0.44301,0 z"
       id="path744"
       style="fill:#f9f9f9;stroke-width:0.360174" />
    <path
       class="cls-1"
       d="m 485.36276,228.75386 a 0.96166559,0.96166559 0 0 1 -0.99048,-1.00128 v 0 a 0.95806385,0.95806385 0 0 1 0.94366,-1.00849 0.91484293,0.91484293 0 0 1 0.92565,0.94726 0.2052994,0.2052994 0 0 1 -0.2089,0.2089 h -1.2318 a 0.54026157,0.54026157 0 0 0 0.55467,0.49344 0.6987383,0.6987383 0 0 0 0.45742,-0.16928 0.18008719,0.18008719 0 0 1 0.11526,-0.0396 0.17648545,0.17648545 0 0 1 0.17648,0.18009 0.18008719,0.18008719 0 0 1 -0.0612,0.13326 0.97607257,0.97607257 0 0 1 -0.68073,0.25572 z m 0.43942,-1.14535 a 0.50064239,0.50064239 0 0 0 -0.48984,-0.50785 0.52225285,0.52225285 0 0 0 -0.51145,0.50785 z"
       id="path746"
       style="fill:#f9f9f9;stroke-width:0.360174" />
    <path
       class="cls-1"
       d="m 486.68821,226.9782 a 0.22330812,0.22330812 0 1 1 0.44301,0 v 0.0973 a 0.72034876,0.72034876 0 0 1 0.60509,-0.33856 0.66272086,0.66272086 0 0 1 0.68794,0.74196 v 1.0301 a 0.21250288,0.21250288 0 0 1 -0.21971,0.2197 0.21970637,0.21970637 0 0 1 -0.22331,-0.2197 v -0.89684 c 0,-0.29894 -0.14767,-0.47183 -0.4142,-0.47183 a 0.43220926,0.43220926 0 0 0 -0.43581,0.47903 v 0.88964 a 0.22330812,0.22330812 0 0 1 -0.44301,0 z"
       id="path748"
       style="fill:#f9f9f9;stroke-width:0.360174" />
    <path
       class="cls-1"
       d="m 489.05095,228.17758 v -1.01929 h -0.072 a 0.18729068,0.18729068 0 0 1 -0.19089,-0.19089 0.19089242,0.19089242 0 0 1 0.19089,-0.19089 h 0.072 v -0.32776 a 0.22330812,0.22330812 0 0 1 0.44301,0 v 0.32776 h 0.36018 a 0.19449417,0.19449417 0 0 1 0.19449,0.19089 0.19449417,0.19449417 0 0 1 -0.19449,0.19089 h -0.36018 v 0.94726 a 0.21250288,0.21250288 0 0 0 0.23772,0.24492 c 0.0504,0 0.0973,0 0.11165,0 a 0.18729068,0.18729068 0 0 1 0.18729,0.18009 0.19089242,0.19089242 0 0 1 -0.11885,0.17288 0.88963072,0.88963072 0 0 1 -0.30255,0.0504 0.4934389,0.4934389 0 0 1 -0.55827,-0.57628 z"
       id="path750"
       style="fill:#f9f9f9;stroke-width:0.360174" />
    <path
       class="cls-1"
       d="m 476.28997,230.75283 a 0.22690986,0.22690986 0 0 1 0.22691,-0.22691 h 0.0468 a 0.24131683,0.24131683 0 0 1 0.20891,0.12246 l 0.77437,1.21739 0.77077,-1.22099 a 0.2305116,0.2305116 0 0 1 0.2053,-0.11886 h 0.0468 a 0.22690986,0.22690986 0 0 1 0.22691,0.22691 v 2.16105 a 0.21970637,0.21970637 0 0 1 -0.22691,0.22331 0.22690986,0.22690986 0 0 1 -0.22331,-0.22331 v -1.55235 l -0.62671,0.94365 a 0.21610463,0.21610463 0 0 1 -0.19089,0.11526 0.21610463,0.21610463 0 0 1 -0.18369,-0.11526 l -0.6231,-0.93645 v 1.53434 a 0.21970637,0.21970637 0 0 1 -0.22331,0.21971 0.21250288,0.21250288 0 0 1 -0.2197,-0.21971 z"
       id="path752"
       style="fill:#f9f9f9;stroke-width:0.360174" />
    <path
       class="cls-1"
       d="m 480.30231,233.15159 a 0.96526734,0.96526734 0 0 1 -0.99408,-1.00488 v 0 a 0.96166559,0.96166559 0 0 1 0.94726,-1.00849 0.91484293,0.91484293 0 0 1 0.91845,0.95446 0.20890114,0.20890114 0 0 1 -0.2089,0.2125 h -1.20659 a 0.54386331,0.54386331 0 0 0 0.55827,0.48984 0.68072958,0.68072958 0 0 0 0.45022,-0.17649 0.16568021,0.16568021 0 0 1 0.11525,-0.0396 0.17648545,0.17648545 0 0 1 0.17649,0.18008 0.19449417,0.19449417 0 0 1 -0.0612,0.13327 0.99047955,0.99047955 0 0 1 -0.69514,0.25932 z m 0.43942,-1.14895 a 0.50064239,0.50064239 0 0 0 -0.48984,-0.50785 0.52945634,0.52945634 0 0 0 -0.50424,0.50785 z"
       id="path754"
       style="fill:#f9f9f9;stroke-width:0.360174" />
    <path
       class="cls-1"
       d="m 481.7178,232.57171 v -1.0337 h -0.072 a 0.19089242,0.19089242 0 0 1 -0.19089,-0.19089 0.19089242,0.19089242 0 0 1 0.19089,-0.19089 h 0.072 v -0.32776 a 0.22331,0.22331 0 0 1 0.44662,0 v 0.34937 h 0.36017 a 0.19449417,0.19449417 0 0 1 0.19449,0.19089 0.19089242,0.19089242 0 0 1 -0.19449,0.19089 h -0.36017 v 0.95086 a 0.21250288,0.21250288 0 0 0 0.23771,0.24132 1.0300987,1.0300987 0 0 0 0.10805,0 0.18368893,0.18368893 0 0 1 0.0684,0.36017 0.871622,0.871622 0 0 1 -0.30255,0.054 0.49704064,0.49704064 0 0 1 -0.55827,-0.59429 z"
       id="path756"
       style="fill:#f9f9f9;stroke-width:0.360174" />
    <path
       class="cls-1"
       d="m 483.00002,232.5501 v 0 c 0,-0.4178 0.32776,-0.6231 0.79959,-0.6231 a 1.6207847,1.6207847 0 0 1 0.51865,0.0792 v -0.0468 c 0,-0.27374 -0.16568,-0.42141 -0.47903,-0.42141 a 1.1705667,1.1705667 0 0 0 -0.42861,0.0756 0.25932555,0.25932555 0 0 1 -0.0684,0 0.18368893,0.18368893 0 0 1 -0.18729,-0.18369 0.19089242,0.19089242 0 0 1 0.12245,-0.17649 1.6532004,1.6532004 0 0 1 0.6195,-0.11525 0.86802026,0.86802026 0 0 1 0.64111,0.2161 0.80318887,0.80318887 0 0 1 0.20891,0.59789 v 0.95446 a 0.20890114,0.20890114 0 0 1 -0.21611,0.20891 0.20169765,0.20169765 0 0 1 -0.2161,-0.18369 v -0.0756 a 0.77797666,0.77797666 0 0 1 -0.62671,0.28454 0.61949993,0.61949993 0 0 1 -0.68793,-0.59069 z m 1.32544,-0.14047 v -0.12966 a 1.1561598,1.1561598 0 0 0 -0.43941,-0.0792 c -0.28454,0 -0.45382,0.12246 -0.45382,0.32416 v 0 c 0,0.18729 0.16568,0.29174 0.37818,0.29174 0.29535,0.007 0.51865,-0.16208 0.51865,-0.407 z"
       id="path758"
       style="fill:#f9f9f9;stroke-width:0.360174" />
    <path
       class="cls-1"
       d="m 485.39518,233.52617 a 0.18008719,0.18008719 0 0 1 -0.12246,-0.17288 0.18368893,0.18368893 0 0 1 0.18729,-0.18369 0.1728837,0.1728837 0 0 1 0.0792,0 1.2029824,1.2029824 0 0 0 0.59429,0.15127 0.54026157,0.54026157 0 0 0 0.61229,-0.59068 v -0.15127 a 0.8139941,0.8139941 0 0 1 -0.68433,0.36017 0.871622,0.871622 0 0 1 -0.87882,-0.90764 v 0 a 0.871622,0.871622 0 0 1 0.87882,-0.90764 0.83920631,0.83920631 0 0 1 0.68073,0.33136 v -0.0936 a 0.21970637,0.21970637 0 0 1 0.21971,-0.21971 0.22330812,0.22330812 0 0 1 0.22331,0.22331 v 1.33985 a 0.9868778,0.9868778 0 0 1 -0.24852,0.72035 1.0805231,1.0805231 0 0 1 -0.79239,0.25932 1.6604039,1.6604039 0 0 1 -0.74916,-0.15848 z m 1.35426,-1.48391 v 0 a 0.54026157,0.54026157 0 0 0 -0.56908,-0.52946 0.52585459,0.52585459 0 0 0 -0.55107,0.52946 v 0 a 0.52585459,0.52585459 0 0 0 0.55107,0.53305 0.54386331,0.54386331 0 0 0 0.56908,-0.53305 z"
       id="path760"
       style="fill:#f9f9f9;stroke-width:0.360174" />
    <path
       class="cls-1"
       d="m 488.62594,233.15159 a 0.96526734,0.96526734 0 0 1 -0.99048,-1.00488 v 0 a 0.95806385,0.95806385 0 0 1 0.94366,-1.00849 0.91484293,0.91484293 0 0 1 0.90404,0.94726 0.20890114,0.20890114 0 0 1 -0.2089,0.2125 h -1.19578 a 0.54026157,0.54026157 0 0 0 0.55467,0.48984 0.68072958,0.68072958 0 0 0 0.45742,-0.16929 0.1728837,0.1728837 0 0 1 0.11525,-0.0396 0.17648545,0.17648545 0 0 1 0.17649,0.18008 0.18008719,0.18008719 0 0 1 -0.0612,0.13327 0.97967431,0.97967431 0 0 1 -0.69514,0.25932 z m 0.43942,-1.14895 a 0.50064239,0.50064239 0 0 0 -0.48984,-0.50785 0.52225285,0.52225285 0 0 0 -0.50064,0.50785 z"
       id="path762"
       style="fill:#f9f9f9;stroke-width:0.360174" />
    <path
       class="cls-1"
       d="m 489.95139,231.37233 a 0.22330812,0.22330812 0 1 1 0.44301,0 v 0.0973 a 0.72034876,0.72034876 0 0 1 0.60509,-0.33857 0.66272086,0.66272086 0 0 1 0.68794,0.74196 v 1.0301 a 0.21250288,0.21250288 0 0 1 -0.21971,0.21971 0.21970637,0.21970637 0 0 1 -0.22331,-0.21971 v -0.89683 c 0,-0.29895 -0.15127,-0.47183 -0.4142,-0.47183 a 0.43220926,0.43220926 0 0 0 -0.43581,0.47903 v 0.88963 a 0.22330812,0.22330812 0 0 1 -0.44301,0 z"
       id="path764"
       style="fill:#f9f9f9;stroke-width:0.360174" />
    <path
       class="cls-1"
       d="m 492.11603,232.15031 v 0 a 1.0337005,1.0337005 0 0 1 2.0638,0 v 0 a 1.01209,1.01209 0 0 1 -1.0373,1.00849 1.0012848,1.0012848 0 0 1 -1.0265,-1.00849 z m 1.62079,0 v 0 a 0.59788947,0.59788947 0 0 0 -0.59429,-0.6123 0.57988075,0.57988075 0 0 0 -0.58348,0.6159 v 0 a 0.59788947,0.59788947 0 0 0 0.59068,0.6195 0.57988075,0.57988075 0 0 0 0.58709,-0.6231 z"
       id="path766"
       style="fill:#f9f9f9;stroke-width:0.360174" />
    <path
       class="cls-1"
       d="m 494.63005,231.37233 a 0.21970637,0.21970637 0 0 1 0.21971,-0.22331 0.22330812,0.22330812 0 0 1 0.22331,0.22331 v 0.0936 a 0.68793307,0.68793307 0 0 1 0.58708,-0.33497 0.61229645,0.61229645 0 0 1 0.57988,0.34217 0.7815784,0.7815784 0 0 1 0.65192,-0.34217 0.64831388,0.64831388 0 0 1 0.67712,0.74196 v 1.0301 a 0.21250288,0.21250288 0 0 1 -0.2197,0.21971 0.21970637,0.21970637 0 0 1 -0.22331,-0.21971 v -0.89683 c 0,-0.30615 -0.14047,-0.47183 -0.39259,-0.47183 -0.25212,0 -0.4142,0.16928 -0.4142,0.47903 v 0.88963 a 0.21610463,0.21610463 0 0 1 -0.21971,0.21971 0.21970637,0.21970637 0 0 1 -0.22331,-0.21971 v -0.90043 c 0,-0.29895 -0.14407,-0.46823 -0.38898,-0.46823 a 0.42140402,0.42140402 0 0 0 -0.4142,0.47903 v 0.88963 a 0.21970637,0.21970637 0 0 1 -0.22331,0.21971 0.21610463,0.21610463 0 0 1 -0.21971,-0.21971 z"
       id="path768"
       style="fill:#f9f9f9;stroke-width:0.360174" />
    <path
       class="cls-1"
       d="m 498.09853,230.65198 a 0.25572381,0.25572381 0 0 1 0.50785,0 v 0.0216 a 0.25572381,0.25572381 0 0 1 -0.50785,0 z m 0.036,0.72035 a 0.21970637,0.21970637 0 0 1 0.2197,-0.22331 0.22330812,0.22330812 0 0 1 0.22331,0.22331 v 1.53074 a 0.21970637,0.21970637 0 0 1 -0.22331,0.21971 0.21610463,0.21610463 0 0 1 -0.2197,-0.21971 z"
       id="path770"
       style="fill:#f9f9f9;stroke-width:0.360174" />
    <path
       class="cls-1"
       d="m 499.04939,232.15031 v 0 a 1.026497,1.026497 0 0 1 1.68562,-0.77078 0.21610463,0.21610463 0 0 1 0.0684,0.15488 0.20169765,0.20169765 0 0 1 -0.2053,0.2017 0.24491858,0.24491858 0 0 1 -0.13326,-0.0432 0.60149121,0.60149121 0 0 0 -0.4142,-0.16568 0.5834825,0.5834825 0 0 0 -0.55827,0.61589 v 0 a 0.5834825,0.5834825 0 0 0 0.57988,0.6195 0.64471214,0.64471214 0 0 0 0.43221,-0.17288 0.18729068,0.18729068 0 0 1 0.30975,0.14767 0.16928196,0.16928196 0 0 1 -0.0612,0.13687 0.95086036,0.95086036 0 0 1 -0.72035,0.27733 0.9868778,0.9868778 0 0 1 -0.98328,-1.00128 z"
       id="path772"
       style="fill:#f9f9f9;stroke-width:0.360174" />
    <path
       class="cls-1"
       d="m 501.17442,232.91388 a 0.1728837,0.1728837 0 0 1 -0.0864,-0.15488 0.18008719,0.18008719 0 0 1 0.18008,-0.18008 0.19089242,0.19089242 0 0 1 0.10085,0.0396 1.01209,1.01209 0 0 0 0.55827,0.1873 c 0.1909,0 0.29895,-0.0792 0.29895,-0.20891 v 0 c 0,-0.15127 -0.2053,-0.20169 -0.43221,-0.27013 -0.28454,-0.0828 -0.60149,-0.19809 -0.60149,-0.56907 v 0 a 0.61589819,0.61589819 0 0 1 0.68793,-0.59069 1.3542557,1.3542557 0 0 1 0.6087,0.15848 0.18729068,0.18729068 0 0 1 0.10445,0.16928 0.18008719,0.18008719 0 0 1 -0.18369,0.18009 0.1728837,0.1728837 0 0 1 -0.0864,-0.0216 1.0373022,1.0373022 0 0 0 -0.45382,-0.13327 c -0.17289,0 -0.27374,0.0792 -0.27374,0.1909 v 0 c 0,0.14046 0.2089,0.20169 0.43581,0.27373 0.28454,0.0864 0.6015,0.2161 0.6015,0.56547 v 0 c 0,0.407 -0.31336,0.6087 -0.72035,0.6087 a 1.3398487,1.3398487 0 0 1 -0.73836,-0.24492 z"
       id="path774"
       style="fill:#f9f9f9;stroke-width:0.360174" />
  </g>
</svg>
