<?xml version="1.0" encoding="UTF-8" standalone="no"?>
<svg
   id="Layer_1"
   data-name="Layer 1"
   viewBox="0 0 470.61123 139.51851"
   version="1.1"
   sodipodi:docname="SPAAM-Logo-Full-Colour-dark.svg"
   width="470.61121"
   height="139.51851"
   inkscape:version="1.3 (1:1.3+202307231459+0e150ed6c4)"
   inkscape:export-filename="SPAAM-Logo-Full-Colour-dark.png"
   inkscape:export-xdpi="262.077"
   inkscape:export-ydpi="262.077"
   xmlns:inkscape="http://www.inkscape.org/namespaces/inkscape"
   xmlns:sodipodi="http://sodipodi.sourceforge.net/DTD/sodipodi-0.dtd"
   xmlns="http://www.w3.org/2000/svg"
   xmlns:svg="http://www.w3.org/2000/svg"
   xmlns:rdf="http://www.w3.org/1999/02/22-rdf-syntax-ns#"
   xmlns:cc="http://creativecommons.org/ns#"
   xmlns:dc="http://purl.org/dc/elements/1.1/">
  <sodipodi:namedview
     id="namedview777"
     pagecolor="#a0a0a0"
     bordercolor="#666666"
     borderopacity="1.0"
     inkscape:showpageshadow="2"
     inkscape:pageopacity="0.0"
     inkscape:pagecheckerboard="true"
     inkscape:deskcolor="#d1d1d1"
     showgrid="false"
     inkscape:zoom="1.9646388"
     inkscape:cx="236.68473"
     inkscape:cy="27.994968"
     inkscape:window-width="1920"
     inkscape:window-height="1016"
     inkscape:window-x="0"
     inkscape:window-y="0"
     inkscape:window-maximized="1"
     inkscape:current-layer="g1021" />
  <defs
     id="defs638">
    <style
       id="style636">.cls-1{fill:#020202;}.cls-2{fill:#2ab675;}.cls-3{fill:#ee4890;}.cls-4{fill:#fc6;}.cls-5{fill:#74d1f6;}</style>
  </defs>
  <title
     id="title640">SPAAM-Logo-Full-Colour</title>
  <g
     id="g1021"
     transform="matrix(1.361289,0,0,1.361289,-20.147077,-31.200744)">
    <path
       class="cls-1"
       d="m 67.46,60.4 a 2.8,2.8 0 0 1 3.36,-4.47 14.56,14.56 0 0 0 9.41,3.46 c 3.65,0 6,-1.73 6,-4.23 v -0.09 c 0,-2.4 -1.34,-3.7 -7.58,-5.14 -7.16,-1.73 -11.19,-3.84 -11.19,-10 V 39.8 c 0,-5.76 4.8,-9.75 11.47,-9.75 a 18.5,18.5 0 0 1 10.67,3.12 2.67,2.67 0 0 1 1.29,2.35 2.75,2.75 0 0 1 -2.78,2.74 2.84,2.84 0 0 1 -1.54,-0.43 14,14 0 0 0 -7.73,-2.55 c -3.46,0 -5.48,1.78 -5.48,4 v 0.1 c 0,2.59 1.54,3.74 8,5.28 7.11,1.73 10.76,4.27 10.76,9.84 v 0.1 c 0,6.29 -5,10 -12,10 A 20.93,20.93 0 0 1 67.46,60.4 Z"
       id="path642"
       style="fill:#f9f9f9" />
    <path
       class="cls-1"
       d="m 101.46,33.51 a 2.93,2.93 0 0 1 3,-3 h 10.28 c 7.88,0 12.77,4.47 12.77,11.24 v 0.09 c 0,7.54 -6,11.48 -13.44,11.48 h -6.68 v 8.11 a 3,3 0 0 1 -5.9,0 z M 114.23,48 c 4.47,0 7.25,-2.5 7.25,-6 v -0.1 c 0,-3.94 -2.83,-6 -7.25,-6 h -6.87 V 48 Z"
       id="path644"
       style="fill:#f9f9f9" />
    <path
       class="cls-1"
       d="m 131.33,60.3 12.48,-27.85 a 3.76,3.76 0 0 1 3.56,-2.4 h 0.29 a 3.67,3.67 0 0 1 3.5,2.4 l 12.49,27.85 a 2.57,2.57 0 0 1 0.33,1.25 2.76,2.76 0 0 1 -2.78,2.83 3,3 0 0 1 -2.88,-2.06 L 155.58,56 h -16.33 l -2.83,6.48 a 2.84,2.84 0 0 1 -2.74,1.87 2.7,2.7 0 0 1 -2.74,-2.73 3,3 0 0 1 0.39,-1.32 z m 22,-9.51 -5.9,-13.58 -5.91,13.58 z"
       id="path646"
       style="fill:#f9f9f9" />
    <path
       class="cls-1"
       d="M 170.71,60.3 183.2,32.45 a 3.74,3.74 0 0 1 3.55,-2.4 H 187 a 3.67,3.67 0 0 1 3.5,2.4 L 203,60.3 a 2.57,2.57 0 0 1 0.33,1.25 2.76,2.76 0 0 1 -2.78,2.83 3,3 0 0 1 -2.88,-2.06 L 195,56 h -16.37 l -2.83,6.48 a 2.84,2.84 0 0 1 -2.74,1.87 2.7,2.7 0 0 1 -2.73,-2.73 3,3 0 0 1 0.38,-1.32 z m 22,-9.51 -5.9,-13.58 -5.91,13.58 z"
       id="path648"
       style="fill:#f9f9f9" />
    <path
       class="cls-1"
       d="m 212.15,33.32 a 3,3 0 0 1 3,-3 h 0.63 a 3.1,3.1 0 0 1 2.73,1.58 l 10.18,15.95 10.23,-16 a 3,3 0 0 1 2.69,-1.53 h 0.62 a 3,3 0 0 1 3,3 V 53 a 2.92,2.92 0 0 1 -3,2.93 A 3,3 0 0 1 239.29,53 V 41.29 l -8.22,12.34 a 2.76,2.76 0 0 1 -4.94,0 L 218,41.38 V 61.5 a 2.87,2.87 0 0 1 -3,2.88 2.83,2.83 0 0 1 -2.89,-2.88 z"
       id="path650"
       style="fill:#f9f9f9" />
    <path
       class="cls-1"
       d="m 186.23,125.41 a 2.56,2.56 0 0 1 -2.56,-2.57 V 88.71 H 17.37 a 2.57,2.57 0 0 1 0,-5.14 h 168.86 a 2.57,2.57 0 0 1 2.57,2.57 v 30.92 l 36.32,-32.83 a 2.58,2.58 0 0 1 1.72,-0.66 h 37.38 V 25.49 a 2.57,2.57 0 0 1 5.14,0 v 60.65 a 2.57,2.57 0 0 1 -2.57,2.57 h -39 l -39.88,36 a 2.53,2.53 0 0 1 -1.68,0.7 z"
       id="path652"
       style="fill:#f9f9f9" />
    <path
       d="m 242.62,59.62 a 5,5 0 1 0 5,5 5,5 0 0 0 -5,-5 z m 0,6.76 a 1.76,1.76 0 1 1 1.76,-1.76 1.75,1.75 0 0 1 -1.76,1.76 z"
       id="path656"
       style="fill:#2ab675;fill-opacity:1" />
    <path
       d="m 40.63,27.07 a 5,5 0 1 0 5,5 5,5 0 0 0 -5,-5 z m 0,6.76 a 1.76,1.76 0 1 1 1.76,-1.75 1.75,1.75 0 0 1 -1.76,1.75 z"
       id="path660"
       style="fill:#ee4890;fill-opacity:1" />
    <path
       d="m 44.83,56.74 a 5,5 0 1 0 5,5 5,5 0 0 0 -5,-5 z m 0,6.76 a 1.76,1.76 0 1 1 1.75,-1.76 1.76,1.76 0 0 1 -1.75,1.76 z"
       id="path664"
       style="fill:#ffcc66;fill-opacity:1" />
    <path
       d="M 34.32,37.22 A 5,5 0 0 0 28,34.1 c -4.14,1.41 -9.74,5.27 -12,11.52 a 19.07,19.07 0 0 0 -0.18,11.56 5,5 0 0 0 4.82,3.67 4.84,4.84 0 0 0 1.3,-0.17 5,5 0 0 0 3.51,-6.13 c -2.13,-7.8 4.41,-10.54 5.74,-11 a 5,5 0 0 0 3.13,-6.33 z m -4.16,3.25 c -4,1.42 -10.2,6.16 -7.81,14.94 a 1.74,1.74 0 0 1 -0.17,1.32 1.71,1.71 0 0 1 -1.05,0.81 1.75,1.75 0 0 1 -2.13,-1.22 15.84,15.84 0 0 1 0.12,-9.61 v 0 a 16.43,16.43 0 0 1 9.88,-9.53 1.54,1.54 0 0 1 0.56,-0.1 1.77,1.77 0 0 1 0.77,0.18 1.72,1.72 0 0 1 0.87,1 1.74,1.74 0 0 1 -1.04,2.21 z"
       id="path668"
       style="fill:#2ab675;fill-opacity:1" />
    <path
       d="M 55.84,43.83 C 52.05,41.66 45.45,40 39.29,42.48 A 19.13,19.13 0 0 0 30.5,50 a 5,5 0 0 0 1.42,6.91 4.93,4.93 0 0 0 2.74,0.83 5,5 0 0 0 1,-0.1 5,5 0 0 0 3.16,-2.15 c 4.45,-6.75 10.83,-3.66 12,-3 a 5.0042207,5.0042207 0 0 0 5,-8.67 z m -1,5.19 a 1.76,1.76 0 0 1 -2.38,0.65 c -3.73,-2.08 -11.36,-3.58 -16.37,4 a 1.75,1.75 0 0 1 -2.41,0.49 1.74,1.74 0 0 1 -0.49,-2.41 15.86,15.86 0 0 1 7.29,-6.27 14.38,14.38 0 0 1 5.39,-1 17.28,17.28 0 0 1 8.32,2.17 1.75,1.75 0 0 1 0.68,2.35 z"
       id="path672"
       style="fill:#74d1f6;fill-opacity:1" />
    <path
       class="cls-1"
       d="m 287.18,32.76 a 0.61,0.61 0 0 1 -0.24,-0.48 0.58,0.58 0 0 1 0.59,-0.58 0.57,0.57 0 0 1 0.36,0.11 3.1,3.1 0 0 0 2,0.73 c 0.77,0 1.26,-0.36 1.26,-0.89 v 0 c 0,-0.51 -0.29,-0.79 -1.61,-1.09 -1.51,-0.37 -2.37,-0.82 -2.37,-2.13 v 0 a 2.18,2.18 0 0 1 2.43,-2.06 3.89,3.89 0 0 1 2.26,0.66 0.57,0.57 0 0 1 0.28,0.5 0.59,0.59 0 0 1 -0.59,0.58 0.6,0.6 0 0 1 -0.33,-0.09 2.94,2.94 0 0 0 -1.64,-0.54 c -0.73,0 -1.16,0.37 -1.16,0.84 v 0 c 0,0.55 0.33,0.79 1.7,1.12 1.37,0.33 2.28,0.9 2.28,2.08 v 0 c 0,1.34 -1,2.13 -2.54,2.13 a 4.45,4.45 0 0 1 -2.68,-0.89 z"
       id="path674"
       style="fill:#f9f9f9" />
    <path
       class="cls-1"
       d="m 293.93,32.06 v -2.82 h -0.2 a 0.53,0.53 0 0 1 -0.53,-0.53 0.53,0.53 0 0 1 0.53,-0.53 h 0.2 v -0.92 a 0.62,0.62 0 0 1 0.62,-0.61 0.61,0.61 0 0 1 0.61,0.61 v 0.92 h 1 a 0.53,0.53 0 0 1 0.54,0.53 0.54,0.54 0 0 1 -0.54,0.53 h -1 v 2.63 a 0.59,0.59 0 0 0 0.67,0.67 2.86,2.86 0 0 0 0.3,0 0.51,0.51 0 0 1 0.52,0.51 0.53,0.53 0 0 1 -0.33,0.48 2.42,2.42 0 0 1 -0.84,0.14 1.38,1.38 0 0 1 -1.55,-1.61 z"
       id="path676"
       style="fill:#f9f9f9" />
    <path
       class="cls-1"
       d="m 297.5,32 v 0 c 0,-1.16 0.91,-1.73 2.22,-1.73 a 4.22,4.22 0 0 1 1.44,0.23 v -0.14 c 0,-0.76 -0.46,-1.16 -1.33,-1.16 a 3.25,3.25 0 0 0 -1.19,0.21 h -0.19 a 0.51,0.51 0 0 1 -0.52,-0.51 0.54,0.54 0 0 1 0.34,-0.49 4.6,4.6 0 0 1 1.72,-0.31 2.37,2.37 0 0 1 1.78,0.6 2.2,2.2 0 0 1 0.58,1.66 V 33 a 0.58,0.58 0 0 1 -0.6,0.59 0.56,0.56 0 0 1 -0.6,-0.52 v -0.2 A 2.19,2.19 0 0 1 299.4,33.65 1.72,1.72 0 0 1 297.5,32 Z m 3.68,-0.38 V 31.25 A 3.43,3.43 0 0 0 300,31 c -0.79,0 -1.26,0.33 -1.26,0.89 v 0 c 0,0.52 0.46,0.82 1.05,0.82 0.77,0.06 1.39,-0.41 1.39,-1.09 z"
       id="path678"
       style="fill:#f9f9f9" />
    <path
       class="cls-1"
       d="m 303.83,28.74 a 0.6,0.6 0 0 1 0.61,-0.62 0.62,0.62 0 0 1 0.62,0.62 V 29 a 1.93,1.93 0 0 1 1.68,-0.93 1.84,1.84 0 0 1 1.91,2.05 V 33 a 0.62,0.62 0 0 1 -1.23,0 v -2.5 c 0,-0.84 -0.42,-1.31 -1.15,-1.31 a 1.19,1.19 0 0 0 -1.21,1.33 V 33 a 0.61,0.61 0 0 1 -0.62,0.61 0.6,0.6 0 0 1 -0.61,-0.61 z"
       id="path680"
       style="fill:#f9f9f9" />
    <path
       class="cls-1"
       d="m 315.41,33 a 0.62,0.62 0 0 1 -1.23,0 v -0.34 a 2.16,2.16 0 0 1 -1.83,1 2.58,2.58 0 0 1 -2.49,-2.79 v 0 a 2.56,2.56 0 0 1 2.49,-2.78 2.2,2.2 0 0 1 1.83,0.94 v -2.35 a 0.62,0.62 0 0 1 1.23,0 z m -4.31,-2.14 v 0 a 1.6,1.6 0 0 0 1.54,1.72 1.62,1.62 0 0 0 1.56,-1.72 v 0 a 1.62,1.62 0 0 0 -1.56,-1.72 1.58,1.58 0 0 0 -1.54,1.71 z"
       id="path682"
       style="fill:#f9f9f9" />
    <path
       class="cls-1"
       d="m 316.6,32 v 0 c 0,-1.16 0.9,-1.73 2.22,-1.73 a 4.26,4.26 0 0 1 1.44,0.23 v -0.14 c 0,-0.76 -0.47,-1.16 -1.33,-1.16 a 3.21,3.21 0 0 0 -1.19,0.21 0.69,0.69 0 0 1 -0.2,0 0.51,0.51 0 0 1 -0.51,-0.51 0.54,0.54 0 0 1 0.33,-0.49 4.69,4.69 0 0 1 1.73,-0.31 2.4,2.4 0 0 1 1.78,0.6 2.2,2.2 0 0 1 0.58,1.66 V 33 a 0.59,0.59 0 0 1 -0.6,0.59 0.55,0.55 0 0 1 -0.6,-0.52 v -0.2 A 2.22,2.22 0 0 1 318.5,33.65 1.71,1.71 0 0 1 316.6,32 Z m 3.68,-0.38 v -0.37 a 3.47,3.47 0 0 0 -1.22,-0.21 c -0.79,0 -1.26,0.33 -1.26,0.89 v 0 c 0,0.52 0.46,0.82 1.05,0.82 0.81,0.02 1.43,-0.45 1.43,-1.13 z"
       id="path684"
       style="fill:#f9f9f9" />
    <path
       class="cls-1"
       d="m 322.92,28.74 a 0.62,0.62 0 1 1 1.23,0 v 0.55 a 1.72,1.72 0 0 1 1.36,-1.18 0.57,0.57 0 0 1 0.61,0.61 0.59,0.59 0 0 1 -0.49,0.59 c -0.88,0.15 -1.48,0.82 -1.48,2.09 V 33 a 0.61,0.61 0 0 1 -0.62,0.61 0.61,0.61 0 0 1 -0.61,-0.61 z"
       id="path686"
       style="fill:#f9f9f9" />
    <path
       class="cls-1"
       d="M 332.25,33 A 0.625,0.625 0 0 1 331,33 v -0.34 a 2.16,2.16 0 0 1 -1.83,1 2.58,2.58 0 0 1 -2.5,-2.79 v 0 a 2.56,2.56 0 0 1 2.5,-2.78 A 2.2,2.2 0 0 1 331,29 v -2.32 a 0.61,0.61 0 0 1 0.61,-0.61 0.61,0.61 0 0 1 0.62,0.61 z m -4.31,-2.14 v 0 a 1.6,1.6 0 0 0 1.54,1.72 1.62,1.62 0 0 0 1.52,-1.71 v 0 a 1.62,1.62 0 0 0 -1.56,-1.72 1.58,1.58 0 0 0 -1.5,1.7 z"
       id="path688"
       style="fill:#f9f9f9" />
    <path
       class="cls-1"
       d="m 333.59,33 a 0.48,0.48 0 0 1 -0.24,-0.43 0.5,0.5 0 0 1 0.5,-0.5 0.48,0.48 0 0 1 0.27,0.08 2.85,2.85 0 0 0 1.54,0.51 c 0.53,0 0.84,-0.22 0.84,-0.58 v 0 c 0,-0.41 -0.57,-0.56 -1.2,-0.75 -0.8,-0.22 -1.68,-0.55 -1.68,-1.58 v 0 a 1.71,1.71 0 0 1 1.91,-1.63 3.75,3.75 0 0 1 1.69,0.43 0.54,0.54 0 0 1 0.29,0.47 0.51,0.51 0 0 1 -0.75,0.44 3,3 0 0 0 -1.26,-0.37 c -0.48,0 -0.75,0.23 -0.75,0.53 v 0 c 0,0.4 0.58,0.56 1.21,0.77 0.78,0.24 1.67,0.6 1.67,1.56 v 0 c 0,1.13 -0.88,1.69 -2,1.69 A 3.64,3.64 0 0 1 333.59,33 Z"
       id="path690"
       style="fill:#f9f9f9" />
    <path
       class="cls-1"
       d="m 338.65,34.46 a 0.87,0.87 0 0 0 0.69,-0.91 0.75,0.75 0 0 1 -0.58,-0.69 v -0.08 a 0.67,0.67 0 0 1 0.7,-0.69 c 0.45,0 0.73,0.35 0.73,0.9 v 0.11 a 2.07,2.07 0 0 1 -0.5,1.49 1.57,1.57 0 0 1 -1,0.43 0.28,0.28 0 0 1 -0.31,-0.28 0.29,0.29 0 0 1 0.27,-0.28 z"
       id="path692"
       style="fill:#f9f9f9" />
    <path
       class="cls-1"
       d="M 287.37,39.26 A 0.62,0.62 0 0 1 288,38.63 h 2.17 c 1.67,0 2.71,0.95 2.71,2.38 v 0 c 0,1.6 -1.28,2.43 -2.85,2.43 h -1.41 v 1.72 a 0.63,0.63 0 0 1 -1.25,0 z m 2.7,3.07 c 0.95,0 1.54,-0.53 1.54,-1.27 v 0 c 0,-0.83 -0.6,-1.27 -1.54,-1.27 h -1.45 v 2.56 z"
       id="path694"
       style="fill:#f9f9f9" />
    <path
       class="cls-1"
       d="m 294,40.94 a 0.6,0.6 0 0 1 0.61,-0.62 0.62,0.62 0 0 1 0.62,0.62 v 0.55 a 1.7,1.7 0 0 1 1.35,-1.18 0.57,0.57 0 0 1 0.61,0.61 0.58,0.58 0 0 1 -0.49,0.59 c -0.87,0.15 -1.47,0.82 -1.47,2.09 v 1.59 A 0.61,0.61 0 0 1 294.61,45.8 0.6,0.6 0 0 1 294,45.19 Z"
       id="path696"
       style="fill:#f9f9f9" />
    <path
       class="cls-1"
       d="m 300.49,45.87 a 2.68,2.68 0 0 1 -2.75,-2.78 v 0 a 2.67,2.67 0 0 1 2.62,-2.8 2.53,2.53 0 0 1 2.55,2.64 0.57,0.57 0 0 1 -0.58,0.59 H 299 a 1.5,1.5 0 0 0 1.54,1.37 1.94,1.94 0 0 0 1.27,-0.47 0.5,0.5 0 0 1 0.32,-0.11 0.48,0.48 0 0 1 0.49,0.49 0.53,0.53 0 0 1 -0.16,0.38 2.76,2.76 0 0 1 -1.97,0.69 z m 1.22,-3.18 a 1.39,1.39 0 0 0 -1.36,-1.41 1.44,1.44 0 0 0 -1.35,1.41 z"
       id="path698"
       style="fill:#f9f9f9" />
    <path
       class="cls-1"
       d="m 303.88,43.1 v 0 a 2.77,2.77 0 0 1 2.79,-2.81 2.72,2.72 0 0 1 1.89,0.67 0.58,0.58 0 0 1 0.19,0.43 0.56,0.56 0 0 1 -0.57,0.56 0.68,0.68 0 0 1 -0.37,-0.13 1.71,1.71 0 0 0 -1.15,-0.45 1.61,1.61 0 0 0 -1.55,1.7 v 0 a 1.62,1.62 0 0 0 1.61,1.71 1.83,1.83 0 0 0 1.2,-0.47 0.51,0.51 0 0 1 0.86,0.4 0.48,0.48 0 0 1 -0.17,0.39 2.63,2.63 0 0 1 -2,0.76 2.74,2.74 0 0 1 -2.73,-2.76 z"
       id="path700"
       style="fill:#f9f9f9" />
    <path
       class="cls-1"
       d="m 309.62,44.2 v 0 c 0,-1.16 0.91,-1.73 2.22,-1.73 a 4.47,4.47 0 0 1 1.44,0.23 v -0.13 c 0,-0.77 -0.46,-1.17 -1.33,-1.17 a 3.25,3.25 0 0 0 -1.19,0.21 h -0.19 a 0.51,0.51 0 0 1 -0.52,-0.51 0.55,0.55 0 0 1 0.34,-0.49 4.6,4.6 0 0 1 1.72,-0.31 2.37,2.37 0 0 1 1.78,0.6 2.21,2.21 0 0 1 0.58,1.66 v 2.64 a 0.58,0.58 0 0 1 -0.6,0.59 0.56,0.56 0 0 1 -0.6,-0.52 v -0.2 a 2.16,2.16 0 0 1 -1.75,0.78 1.72,1.72 0 0 1 -1.9,-1.65 z m 3.68,-0.38 v -0.37 a 3.43,3.43 0 0 0 -1.22,-0.21 c -0.79,0 -1.26,0.33 -1.26,0.89 v 0 c 0,0.52 0.46,0.82 1.05,0.82 0.81,0.05 1.43,-0.45 1.43,-1.13 z"
       id="path702"
       style="fill:#f9f9f9" />
    <path
       class="cls-1"
       d="m 320.72,45.19 a 0.61,0.61 0 0 1 -0.62,0.61 0.61,0.61 0 0 1 -0.62,-0.61 v -0.27 a 2,2 0 0 1 -1.68,0.94 1.84,1.84 0 0 1 -1.91,-2.06 v -2.86 a 0.61,0.61 0 0 1 0.61,-0.62 0.62,0.62 0 0 1 0.62,0.62 v 2.49 c 0,0.83 0.41,1.3 1.15,1.3 a 1.19,1.19 0 0 0 1.21,-1.32 v -2.47 a 0.61,0.61 0 0 1 0.62,-0.62 0.62,0.62 0 0 1 0.62,0.62 z"
       id="path704"
       style="fill:#f9f9f9" />
    <path
       class="cls-1"
       d="m 322.51,44.26 v -2.82 h -0.21 a 0.53,0.53 0 0 1 -0.53,-0.53 0.53,0.53 0 0 1 0.53,-0.53 h 0.21 v -0.92 a 0.62,0.62 0 0 1 1.23,0 v 0.92 h 1 a 0.53,0.53 0 0 1 0.54,0.53 0.54,0.54 0 0 1 -0.54,0.53 h -1 v 2.63 a 0.58,0.58 0 0 0 0.66,0.67 2.86,2.86 0 0 0 0.3,0 0.52,0.52 0 0 1 0.52,0.51 0.54,0.54 0 0 1 -0.32,0.48 2.52,2.52 0 0 1 -0.85,0.14 1.38,1.38 0 0 1 -1.54,-1.61 z"
       id="path706"
       style="fill:#f9f9f9" />
    <path
       class="cls-1"
       d="m 326.41,38.94 a 0.71,0.71 0 0 1 1.4,0 V 39 a 0.71,0.71 0 0 1 -1.4,0 z m 0.09,2 a 0.62,0.62 0 1 1 1.23,0 v 4.25 a 0.62,0.62 0 0 1 -1.23,0 z"
       id="path708"
       style="fill:#f9f9f9" />
    <path
       class="cls-1"
       d="m 329,43.1 v 0 a 2.87,2.87 0 0 1 5.73,0 v 0 A 2.81,2.81 0 0 1 331.85,45.89 2.78,2.78 0 0 1 329,43.1 Z m 4.5,0 v 0 a 1.66,1.66 0 0 0 -1.65,-1.73 1.61,1.61 0 0 0 -1.62,1.7 v 0 a 1.66,1.66 0 0 0 1.64,1.71 1.61,1.61 0 0 0 1.67,-1.68 z"
       id="path710"
       style="fill:#f9f9f9" />
    <path
       class="cls-1"
       d="m 336,40.94 a 0.6,0.6 0 0 1 0.61,-0.62 0.62,0.62 0 0 1 0.62,0.62 v 0.26 a 2,2 0 0 1 1.68,-0.93 1.84,1.84 0 0 1 1.91,2 v 2.87 a 0.62,0.62 0 0 1 -1.23,0 V 42.7 c 0,-0.84 -0.42,-1.31 -1.15,-1.31 a 1.2,1.2 0 0 0 -1.21,1.33 v 2.47 A 0.61,0.61 0 0 1 336.61,45.8 0.6,0.6 0 0 1 336,45.19 Z"
       id="path712"
       style="fill:#f9f9f9" />
    <path
       class="cls-1"
       d="m 342.12,45.21 a 0.47,0.47 0 0 1 -0.23,-0.43 0.48,0.48 0 0 1 0.49,-0.49 0.54,0.54 0 0 1 0.27,0.07 2.89,2.89 0 0 0 1.54,0.52 c 0.53,0 0.84,-0.23 0.84,-0.58 v 0 c 0,-0.42 -0.57,-0.56 -1.2,-0.76 -0.8,-0.22 -1.68,-0.55 -1.68,-1.57 v 0 a 1.71,1.71 0 0 1 1.91,-1.64 3.64,3.64 0 0 1 1.69,0.44 0.51,0.51 0 0 1 0.29,0.46 0.51,0.51 0 0 1 -0.75,0.44 3,3 0 0 0 -1.26,-0.37 c -0.48,0 -0.75,0.23 -0.75,0.53 v 0 c 0,0.4 0.58,0.56 1.21,0.77 0.63,0.21 1.67,0.6 1.67,1.56 v 0 c 0,1.13 -0.88,1.69 -2,1.69 a 3.64,3.64 0 0 1 -2.04,-0.64 z"
       id="path714"
       style="fill:#f9f9f9" />
    <path
       class="cls-1"
       d="m 355.36,45.66 -0.74,-0.75 a 3.1,3.1 0 0 1 -2.2,0.94 2.1,2.1 0 0 1 -2.33,-2 v 0 a 2.14,2.14 0 0 1 1.52,-2 2.26,2.26 0 0 1 -0.59,-1.48 v 0 a 1.86,1.86 0 0 1 2,-1.79 1.75,1.75 0 0 1 1.98,1.65 v 0 c 0,0.93 -0.62,1.49 -1.55,1.85 l 1.21,1.23 a 9.78,9.78 0 0 0 0.59,-1 0.52,0.52 0 0 1 0.46,-0.29 0.54,0.54 0 0 1 0.54,0.53 0.64,0.64 0 0 1 -0.07,0.27 11,11 0 0 1 -0.77,1.25 l 0.79,0.8 a 0.56,0.56 0 0 1 0.2,0.42 0.54,0.54 0 0 1 -0.55,0.56 0.56,0.56 0 0 1 -0.49,-0.19 z m -1.47,-1.48 -1.58,-1.61 a 1.34,1.34 0 0 0 -1,1.19 v 0 a 1.08,1.08 0 0 0 1.19,1 1.94,1.94 0 0 0 1.39,-0.58 z m -0.05,-3.86 v 0 a 0.76,0.76 0 0 0 -0.8,-0.8 0.81,0.81 0 0 0 -0.85,0.85 v 0 a 1.52,1.52 0 0 0 0.53,1.06 c 0.74,-0.27 1.12,-0.59 1.12,-1.11 z"
       id="path716"
       style="fill:#f9f9f9" />
    <path
       class="cls-1"
       d="m 287,57.14 2.64,-5.9 a 0.8,0.8 0 0 1 0.76,-0.51 h 0.06 a 0.78,0.78 0 0 1 0.74,0.51 l 2.64,5.9 a 0.54,0.54 0 0 1 0.07,0.26 0.58,0.58 0 0 1 -0.59,0.6 0.65,0.65 0 0 1 -0.61,-0.44 l -0.57,-1.33 h -3.46 l -0.6,1.38 A 0.6,0.6 0 0 1 287.5,58 0.57,0.57 0 0 1 286.92,57.42 0.63,0.63 0 0 1 287,57.14 Z m 4.66,-2 -1.25,-2.87 -1.25,2.87 z"
       id="path718"
       style="fill:#f9f9f9" />
    <path
       class="cls-1"
       d="m 300.21,57.39 a 0.62,0.62 0 0 1 -1.23,0 v -0.33 a 2.15,2.15 0 0 1 -1.83,1 2.57,2.57 0 0 1 -2.49,-2.78 v 0 a 2.57,2.57 0 0 1 2.49,-2.79 2.21,2.21 0 0 1 1.83,1 v -2.4 a 0.6,0.6 0 0 1 0.61,-0.61 0.61,0.61 0 0 1 0.62,0.61 z m -4.31,-2.13 v 0 A 1.6,1.6 0 0 0 297.44,57 1.62,1.62 0 0 0 299,55.28 v 0 a 1.61,1.61 0 0 0 -1.56,-1.72 1.57,1.57 0 0 0 -1.54,1.7 z"
       id="path720"
       style="fill:#f9f9f9" />
    <path
       class="cls-1"
       d="m 304,58.05 h -0.06 a 0.75,0.75 0 0 1 -0.7,-0.54 l -1.79,-4.09 a 1.08,1.08 0 0 1 -0.07,-0.31 0.62,0.62 0 0 1 1.22,-0.14 l 1.4,3.56 1.4,-3.58 a 0.62,0.62 0 0 1 0.58,-0.43 0.58,0.58 0 0 1 0.6,0.59 0.83,0.83 0 0 1 -0.07,0.3 l -1.79,4.1 A 0.76,0.76 0 0 1 304,58.05 Z"
       id="path722"
       style="fill:#f9f9f9" />
    <path
       class="cls-1"
       d="m 307.2,56.41 v 0 c 0,-1.15 0.91,-1.72 2.22,-1.72 a 4.5,4.5 0 0 1 1.44,0.22 v -0.13 c 0,-0.77 -0.46,-1.17 -1.33,-1.17 a 3.25,3.25 0 0 0 -1.19,0.21 h -0.19 a 0.51,0.51 0 0 1 -0.52,-0.51 0.52,0.52 0 0 1 0.34,-0.48 4.4,4.4 0 0 1 1.72,-0.32 2.37,2.37 0 0 1 1.78,0.6 2.23,2.23 0 0 1 0.58,1.66 v 2.64 a 0.58,0.58 0 0 1 -0.6,0.59 0.56,0.56 0 0 1 -0.6,-0.52 v -0.2 a 2.16,2.16 0 0 1 -1.75,0.78 1.72,1.72 0 0 1 -1.9,-1.65 z m 3.68,-0.39 v -0.37 a 3.43,3.43 0 0 0 -1.22,-0.21 c -0.79,0 -1.26,0.33 -1.26,0.89 v 0 c 0,0.52 0.46,0.82 1.05,0.82 0.81,0.02 1.43,-0.45 1.43,-1.15 z"
       id="path724"
       style="fill:#f9f9f9" />
    <path
       class="cls-1"
       d="m 313.53,53.14 a 0.6,0.6 0 0 1 0.61,-0.62 0.62,0.62 0 0 1 0.62,0.62 v 0.27 a 1.93,1.93 0 0 1 1.68,-0.94 1.84,1.84 0 0 1 1.91,2.05 v 2.87 a 0.62,0.62 0 0 1 -1.23,0 V 54.9 c 0,-0.83 -0.42,-1.31 -1.15,-1.31 a 1.2,1.2 0 0 0 -1.21,1.33 v 2.47 a 0.61,0.61 0 0 1 -0.62,0.61 0.6,0.6 0 0 1 -0.61,-0.61 z"
       id="path726"
       style="fill:#f9f9f9" />
    <path
       class="cls-1"
       d="m 319.54,55.3 v 0 a 2.77,2.77 0 0 1 2.79,-2.81 2.67,2.67 0 0 1 1.88,0.67 0.55,0.55 0 0 1 0.2,0.43 0.57,0.57 0 0 1 -0.57,0.56 0.59,0.59 0 0 1 -0.37,-0.13 1.71,1.71 0 0 0 -1.15,-0.45 1.62,1.62 0 0 0 -1.55,1.71 v 0 a 1.63,1.63 0 0 0 1.6,1.72 1.8,1.8 0 0 0 1.2,-0.48 0.59,0.59 0 0 1 0.34,-0.14 0.54,0.54 0 0 1 0.53,0.54 0.48,0.48 0 0 1 -0.17,0.39 2.63,2.63 0 0 1 -2,0.76 2.74,2.74 0 0 1 -2.73,-2.77 z"
       id="path728"
       style="fill:#f9f9f9" />
    <path
       class="cls-1"
       d="m 328,58.07 a 2.68,2.68 0 0 1 -2.76,-2.78 v 0 a 2.67,2.67 0 0 1 2.62,-2.8 2.54,2.54 0 0 1 2.56,2.64 0.58,0.58 0 0 1 -0.58,0.59 h -3.37 a 1.5,1.5 0 0 0 1.53,1.35 2,2 0 0 0 1.27,-0.47 0.45,0.45 0 0 1 0.31,-0.11 0.48,0.48 0 0 1 0.42,0.51 0.53,0.53 0 0 1 -0.16,0.38 2.75,2.75 0 0 1 -1.84,0.69 z m 1.22,-3.18 a 1.4,1.4 0 0 0 -1.37,-1.41 1.45,1.45 0 0 0 -1.39,1.41 z"
       id="path730"
       style="fill:#f9f9f9" />
    <path
       class="cls-1"
       d="m 331.42,57.41 a 0.47,0.47 0 0 1 -0.23,-0.43 0.49,0.49 0 0 1 0.5,-0.49 0.53,0.53 0 0 1 0.26,0.07 2.9,2.9 0 0 0 1.55,0.52 c 0.53,0 0.83,-0.23 0.83,-0.58 v 0 c 0,-0.42 -0.57,-0.56 -1.2,-0.76 -0.79,-0.22 -1.68,-0.55 -1.68,-1.57 v 0 a 1.72,1.72 0 0 1 1.91,-1.64 3.64,3.64 0 0 1 1.69,0.44 0.51,0.51 0 0 1 0.3,0.46 0.5,0.5 0 0 1 -0.51,0.5 0.48,0.48 0 0 1 -0.24,-0.06 3,3 0 0 0 -1.27,-0.36 c -0.47,0 -0.75,0.22 -0.75,0.52 v 0 c 0,0.39 0.58,0.55 1.21,0.76 0.79,0.24 1.67,0.6 1.67,1.56 v 0 c 0,1.13 -0.87,1.69 -2,1.69 a 3.67,3.67 0 0 1 -2.04,-0.63 z"
       id="path732"
       style="fill:#f9f9f9" />
    <path
       class="cls-1"
       d="m 339.75,51.14 a 0.71,0.71 0 0 1 1.4,0 v 0.06 a 0.71,0.71 0 0 1 -1.4,0 z m 0.09,2 a 0.62,0.62 0 1 1 1.23,0 v 4.25 a 0.62,0.62 0 0 1 -1.23,0 z"
       id="path734"
       style="fill:#f9f9f9" />
    <path
       class="cls-1"
       d="m 342.68,53.14 a 0.6,0.6 0 0 1 0.61,-0.62 0.62,0.62 0 0 1 0.62,0.62 v 0.27 a 1.93,1.93 0 0 1 1.68,-0.94 1.84,1.84 0 0 1 1.91,2.05 v 2.87 a 0.62,0.62 0 0 1 -1.23,0 V 54.9 c 0,-0.83 -0.42,-1.31 -1.15,-1.31 a 1.2,1.2 0 0 0 -1.21,1.33 v 2.47 a 0.61,0.61 0 0 1 -0.62,0.61 0.6,0.6 0 0 1 -0.61,-0.61 z"
       id="path736"
       style="fill:#f9f9f9" />
    <path
       class="cls-1"
       d="m 287,69.34 2.64,-5.9 a 0.8,0.8 0 0 1 0.76,-0.51 h 0.06 a 0.78,0.78 0 0 1 0.74,0.51 l 2.64,5.9 a 0.54,0.54 0 0 1 0.07,0.26 0.58,0.58 0 0 1 -0.59,0.6 0.66,0.66 0 0 1 -0.61,-0.43 l -0.57,-1.34 h -3.46 l -0.6,1.38 a 0.6,0.6 0 0 1 -0.58,0.39 0.57,0.57 0 0 1 -0.58,-0.58 0.63,0.63 0 0 1 0.08,-0.28 z m 4.66,-2 -1.25,-2.88 -1.25,2.88 z"
       id="path738"
       style="fill:#f9f9f9" />
    <path
       class="cls-1"
       d="m 295.08,65.34 a 0.62,0.62 0 1 1 1.23,0 v 0.27 a 2,2 0 0 1 1.68,-0.94 1.84,1.84 0 0 1 1.91,2.06 v 2.86 a 0.59,0.59 0 0 1 -0.61,0.61 0.61,0.61 0 0 1 -0.62,-0.61 V 67.1 c 0,-0.83 -0.41,-1.31 -1.15,-1.31 a 1.2,1.2 0 0 0 -1.21,1.33 v 2.47 a 0.62,0.62 0 0 1 -1.23,0 z"
       id="path740"
       style="fill:#f9f9f9" />
    <path
       class="cls-1"
       d="m 301.09,67.5 v 0 a 2.85,2.85 0 0 1 4.68,-2.14 0.6,0.6 0 0 1 0.19,0.43 0.56,0.56 0 0 1 -0.57,0.56 0.62,0.62 0 0 1 -0.36,-0.12 1.69,1.69 0 0 0 -1.15,-0.46 1.62,1.62 0 0 0 -1.56,1.71 v 0 a 1.63,1.63 0 0 0 1.61,1.72 1.82,1.82 0 0 0 1.2,-0.48 0.52,0.52 0 0 1 0.86,0.41 0.47,0.47 0 0 1 -0.17,0.38 2.62,2.62 0 0 1 -1.95,0.76 2.74,2.74 0 0 1 -2.78,-2.77 z"
       id="path742"
       style="fill:#f9f9f9" />
    <path
       class="cls-1"
       d="m 307.17,63.34 a 0.71,0.71 0 0 1 1.41,0 v 0.06 a 0.71,0.71 0 0 1 -1.41,0 z m 0.09,2 a 0.62,0.62 0 1 1 1.23,0 v 4.25 a 0.62,0.62 0 0 1 -1.23,0 z"
       id="path744"
       style="fill:#f9f9f9" />
    <path
       class="cls-1"
       d="m 312.56,70.27 a 2.67,2.67 0 0 1 -2.75,-2.78 v 0 a 2.66,2.66 0 0 1 2.62,-2.8 2.54,2.54 0 0 1 2.57,2.63 0.57,0.57 0 0 1 -0.58,0.58 H 311 a 1.5,1.5 0 0 0 1.54,1.37 1.94,1.94 0 0 0 1.27,-0.47 0.5,0.5 0 0 1 0.32,-0.11 0.49,0.49 0 0 1 0.49,0.5 0.5,0.5 0 0 1 -0.17,0.37 2.71,2.71 0 0 1 -1.89,0.71 z m 1.22,-3.18 a 1.39,1.39 0 0 0 -1.36,-1.41 1.45,1.45 0 0 0 -1.42,1.41 z"
       id="path746"
       style="fill:#f9f9f9" />
    <path
       class="cls-1"
       d="m 316.24,65.34 a 0.62,0.62 0 1 1 1.23,0 v 0.27 a 2,2 0 0 1 1.68,-0.94 1.84,1.84 0 0 1 1.91,2.06 v 2.86 a 0.59,0.59 0 0 1 -0.61,0.61 0.61,0.61 0 0 1 -0.62,-0.61 V 67.1 c 0,-0.83 -0.41,-1.31 -1.15,-1.31 a 1.2,1.2 0 0 0 -1.21,1.33 v 2.47 a 0.62,0.62 0 0 1 -1.23,0 z"
       id="path748"
       style="fill:#f9f9f9" />
    <path
       class="cls-1"
       d="m 322.8,68.67 v -2.83 h -0.2 a 0.52,0.52 0 0 1 -0.53,-0.53 0.53,0.53 0 0 1 0.53,-0.53 h 0.2 v -0.91 a 0.62,0.62 0 0 1 1.23,0 v 0.91 h 1 a 0.54,0.54 0 0 1 0.54,0.53 0.54,0.54 0 0 1 -0.54,0.53 h -1 v 2.63 a 0.59,0.59 0 0 0 0.66,0.68 c 0.14,0 0.27,0 0.31,0 a 0.52,0.52 0 0 1 0.52,0.5 0.53,0.53 0 0 1 -0.33,0.48 2.47,2.47 0 0 1 -0.84,0.14 1.37,1.37 0 0 1 -1.55,-1.6 z"
       id="path750"
       style="fill:#f9f9f9" />
    <path
       class="cls-1"
       d="M 287.37,75.82 A 0.63,0.63 0 0 1 288,75.19 h 0.13 a 0.67,0.67 0 0 1 0.58,0.34 l 2.15,3.38 2.14,-3.39 a 0.64,0.64 0 0 1 0.57,-0.33 h 0.13 a 0.63,0.63 0 0 1 0.63,0.63 v 6 a 0.61,0.61 0 0 1 -0.63,0.62 0.63,0.63 0 0 1 -0.62,-0.62 v -4.31 l -1.74,2.62 a 0.6,0.6 0 0 1 -0.53,0.32 0.6,0.6 0 0 1 -0.51,-0.32 l -1.73,-2.6 v 4.26 a 0.61,0.61 0 0 1 -0.62,0.61 0.59,0.59 0 0 1 -0.61,-0.61 z"
       id="path752"
       style="fill:#f9f9f9" />
    <path
       class="cls-1"
       d="m 298.51,82.48 a 2.68,2.68 0 0 1 -2.76,-2.79 v 0 a 2.67,2.67 0 0 1 2.63,-2.8 2.54,2.54 0 0 1 2.55,2.65 0.58,0.58 0 0 1 -0.58,0.59 H 297 a 1.51,1.51 0 0 0 1.55,1.36 1.89,1.89 0 0 0 1.25,-0.49 0.46,0.46 0 0 1 0.32,-0.11 0.49,0.49 0 0 1 0.49,0.5 0.54,0.54 0 0 1 -0.17,0.37 2.75,2.75 0 0 1 -1.93,0.72 z m 1.22,-3.19 a 1.39,1.39 0 0 0 -1.36,-1.41 1.47,1.47 0 0 0 -1.4,1.41 z"
       id="path754"
       style="fill:#f9f9f9" />
    <path
       class="cls-1"
       d="M 302.44,80.87 V 78 h -0.2 a 0.53,0.53 0 0 1 -0.53,-0.53 0.53,0.53 0 0 1 0.53,-0.53 h 0.2 v -0.91 a 0.62,0.62 0 0 1 1.24,0 V 77 h 1 a 0.54,0.54 0 0 1 0.54,0.53 0.53,0.53 0 0 1 -0.54,0.53 h -1 v 2.64 a 0.59,0.59 0 0 0 0.66,0.67 2.86,2.86 0 0 0 0.3,0 0.51,0.51 0 0 1 0.19,1 2.42,2.42 0 0 1 -0.84,0.15 1.38,1.38 0 0 1 -1.55,-1.65 z"
       id="path756"
       style="fill:#f9f9f9" />
    <path
       class="cls-1"
       d="m 306,80.81 v 0 c 0,-1.16 0.91,-1.73 2.22,-1.73 a 4.5,4.5 0 0 1 1.44,0.22 v -0.13 c 0,-0.76 -0.46,-1.17 -1.33,-1.17 a 3.25,3.25 0 0 0 -1.19,0.21 0.72,0.72 0 0 1 -0.19,0 0.51,0.51 0 0 1 -0.52,-0.51 0.53,0.53 0 0 1 0.34,-0.49 4.59,4.59 0 0 1 1.72,-0.32 2.41,2.41 0 0 1 1.78,0.6 2.23,2.23 0 0 1 0.58,1.66 v 2.65 a 0.58,0.58 0 0 1 -0.6,0.58 0.56,0.56 0 0 1 -0.6,-0.51 v -0.21 a 2.16,2.16 0 0 1 -1.74,0.79 1.72,1.72 0 0 1 -1.91,-1.64 z m 3.68,-0.39 v -0.36 a 3.21,3.21 0 0 0 -1.22,-0.22 c -0.79,0 -1.26,0.34 -1.26,0.9 v 0 c 0,0.52 0.46,0.81 1.05,0.81 0.82,0.02 1.44,-0.45 1.44,-1.13 z"
       id="path758"
       style="fill:#f9f9f9" />
    <path
       class="cls-1"
       d="m 312.65,83.52 a 0.5,0.5 0 0 1 -0.34,-0.48 0.51,0.51 0 0 1 0.52,-0.51 0.48,0.48 0 0 1 0.22,0 3.34,3.34 0 0 0 1.65,0.42 1.5,1.5 0 0 0 1.7,-1.64 v -0.42 a 2.26,2.26 0 0 1 -1.9,1 2.42,2.42 0 0 1 -2.44,-2.52 v 0 a 2.42,2.42 0 0 1 2.44,-2.52 2.33,2.33 0 0 1 1.89,0.92 v -0.26 a 0.61,0.61 0 0 1 0.61,-0.61 0.62,0.62 0 0 1 0.62,0.62 v 3.72 a 2.74,2.74 0 0 1 -0.69,2 3,3 0 0 1 -2.2,0.72 4.61,4.61 0 0 1 -2.08,-0.44 z m 3.76,-4.12 v 0 a 1.5,1.5 0 0 0 -1.58,-1.47 1.46,1.46 0 0 0 -1.53,1.47 v 0 a 1.46,1.46 0 0 0 1.53,1.48 1.51,1.51 0 0 0 1.58,-1.48 z"
       id="path760"
       style="fill:#f9f9f9" />
    <path
       class="cls-1"
       d="m 321.62,82.48 a 2.68,2.68 0 0 1 -2.75,-2.79 v 0 a 2.66,2.66 0 0 1 2.62,-2.8 2.54,2.54 0 0 1 2.51,2.63 0.58,0.58 0 0 1 -0.58,0.59 h -3.32 a 1.5,1.5 0 0 0 1.54,1.36 1.89,1.89 0 0 0 1.27,-0.47 0.48,0.48 0 0 1 0.32,-0.11 0.49,0.49 0 0 1 0.49,0.5 0.5,0.5 0 0 1 -0.17,0.37 2.72,2.72 0 0 1 -1.93,0.72 z m 1.22,-3.19 a 1.39,1.39 0 0 0 -1.36,-1.41 1.45,1.45 0 0 0 -1.39,1.41 z"
       id="path762"
       style="fill:#f9f9f9" />
    <path
       class="cls-1"
       d="m 325.3,77.54 a 0.62,0.62 0 1 1 1.23,0 v 0.27 a 2,2 0 0 1 1.68,-0.94 1.84,1.84 0 0 1 1.91,2.06 v 2.86 a 0.59,0.59 0 0 1 -0.61,0.61 0.61,0.61 0 0 1 -0.62,-0.61 V 79.3 c 0,-0.83 -0.42,-1.31 -1.15,-1.31 a 1.2,1.2 0 0 0 -1.21,1.33 v 2.47 a 0.62,0.62 0 0 1 -1.23,0 z"
       id="path764"
       style="fill:#f9f9f9" />
    <path
       class="cls-1"
       d="m 331.31,79.7 v 0 a 2.87,2.87 0 0 1 5.73,0 v 0 a 2.81,2.81 0 0 1 -2.88,2.8 2.78,2.78 0 0 1 -2.85,-2.8 z m 4.5,0 v 0 a 1.66,1.66 0 0 0 -1.65,-1.7 1.61,1.61 0 0 0 -1.62,1.71 v 0 a 1.66,1.66 0 0 0 1.64,1.72 1.61,1.61 0 0 0 1.63,-1.73 z"
       id="path766"
       style="fill:#f9f9f9" />
    <path
       class="cls-1"
       d="m 338.29,77.54 a 0.61,0.61 0 0 1 0.61,-0.62 0.62,0.62 0 0 1 0.62,0.62 v 0.26 a 1.91,1.91 0 0 1 1.63,-0.93 1.7,1.7 0 0 1 1.61,0.95 2.17,2.17 0 0 1 1.81,-0.95 1.8,1.8 0 0 1 1.88,2.06 v 2.86 a 0.59,0.59 0 0 1 -0.61,0.61 0.61,0.61 0 0 1 -0.62,-0.61 V 79.3 c 0,-0.85 -0.39,-1.31 -1.09,-1.31 -0.7,0 -1.15,0.47 -1.15,1.33 v 2.47 a 0.6,0.6 0 0 1 -0.61,0.61 0.61,0.61 0 0 1 -0.62,-0.61 v -2.5 c 0,-0.83 -0.4,-1.3 -1.08,-1.3 a 1.17,1.17 0 0 0 -1.15,1.33 v 2.47 a 0.61,0.61 0 0 1 -0.62,0.61 0.6,0.6 0 0 1 -0.61,-0.61 z"
       id="path768"
       style="fill:#f9f9f9" />
    <path
       class="cls-1"
       d="m 347.92,75.54 a 0.71,0.71 0 0 1 1.41,0 v 0.06 a 0.71,0.71 0 0 1 -1.41,0 z m 0.1,2 a 0.61,0.61 0 0 1 0.61,-0.62 0.62,0.62 0 0 1 0.62,0.62 v 4.25 a 0.61,0.61 0 0 1 -0.62,0.61 0.6,0.6 0 0 1 -0.61,-0.61 z"
       id="path770"
       style="fill:#f9f9f9" />
    <path
       class="cls-1"
       d="m 350.56,79.7 v 0 a 2.85,2.85 0 0 1 4.68,-2.14 0.6,0.6 0 0 1 0.19,0.43 0.56,0.56 0 0 1 -0.57,0.56 0.68,0.68 0 0 1 -0.37,-0.12 1.67,1.67 0 0 0 -1.15,-0.46 1.62,1.62 0 0 0 -1.55,1.71 v 0 a 1.62,1.62 0 0 0 1.61,1.72 1.79,1.79 0 0 0 1.2,-0.48 0.52,0.52 0 0 1 0.86,0.41 0.47,0.47 0 0 1 -0.17,0.38 2.64,2.64 0 0 1 -2,0.77 2.74,2.74 0 0 1 -2.73,-2.78 z"
       id="path772"
       style="fill:#f9f9f9" />
    <path
       class="cls-1"
       d="m 356.46,81.82 a 0.48,0.48 0 0 1 -0.24,-0.43 0.5,0.5 0 0 1 0.5,-0.5 0.53,0.53 0 0 1 0.28,0.11 2.81,2.81 0 0 0 1.55,0.52 c 0.53,0 0.83,-0.22 0.83,-0.58 v 0 c 0,-0.42 -0.57,-0.56 -1.2,-0.75 -0.79,-0.23 -1.67,-0.55 -1.67,-1.58 v 0 a 1.71,1.71 0 0 1 1.91,-1.64 3.76,3.76 0 0 1 1.69,0.44 0.52,0.52 0 0 1 0.29,0.47 0.5,0.5 0 0 1 -0.51,0.5 0.48,0.48 0 0 1 -0.24,-0.06 2.88,2.88 0 0 0 -1.26,-0.37 c -0.48,0 -0.76,0.22 -0.76,0.53 v 0 c 0,0.39 0.58,0.56 1.21,0.76 0.79,0.24 1.67,0.6 1.67,1.57 v 0 c 0,1.13 -0.87,1.69 -2,1.69 a 3.72,3.72 0 0 1 -2.05,-0.68 z"
       id="path774"
       style="fill:#f9f9f9" />
  </g>
  <metadata
     id="metadata883">
    <rdf:RDF>
      <cc:Work
         rdf:about="">
        <dc:title>SPAAM-Logo-Full-Colour</dc:title>
      </cc:Work>
    </rdf:RDF>
  </metadata>
</svg>
