<?xml version="1.0" encoding="UTF-8" standalone="no"?>
<!-- Created with Inkscape (http://www.inkscape.org/) -->

<svg
   width="75mm"
   height="75mm"
   viewBox="0 0 75 75"
   version="1.1"
   id="svg1"
   inkscape:version="1.3 (1:1.3+202307231459+0e150ed6c4)"
   sodipodi:docname="spaam-blog-logo-whitemode.svg"
   xmlns:inkscape="http://www.inkscape.org/namespaces/inkscape"
   xmlns:sodipodi="http://sodipodi.sourceforge.net/DTD/sodipodi-0.dtd"
   xmlns="http://www.w3.org/2000/svg"
   xmlns:svg="http://www.w3.org/2000/svg">
  <sodipodi:namedview
     id="namedview1"
     pagecolor="#505050"
     bordercolor="#ffffff"
     borderopacity="1"
     inkscape:showpageshadow="0"
     inkscape:pageopacity="0"
     inkscape:pagecheckerboard="1"
     inkscape:deskcolor="#d1d1d1"
     inkscape:document-units="mm"
     inkscape:zoom="2.0015878"
     inkscape:cx="163.3703"
     inkscape:cy="204.83738"
     inkscape:current-layer="layer1" />
  <defs
     id="defs1" />
  <g
     inkscape:label="Layer 1"
     inkscape:groupmode="layer"
     id="layer1"
     transform="translate(-35.444176,-54.668816)">
    <g
       id="g2"
       transform="translate(4.1019397,7.1725248)">
      <g
         id="g760-3-6-7"
         transform="translate(-39.20165,-72.737437)">
        <path
           d="m 111.06381,155.71651 a 3.6750625,3.6750625 0 1 0 3.67506,3.67507 3.6777083,3.6777083 0 0 0 -3.67506,-3.67507 z m 0,4.96623 a 1.2911667,1.2911667 0 1 1 1.28852,-1.29116 1.2938125,1.2938125 0 0 1 -1.28852,1.29116 z"
           id="path1154-6-2-3"
           style="stroke-width:0.264583" />
        <path
           class="cls-1"
           d="m 107.98406,136.31726 a 1.2911667,1.2911667 0 1 0 1.29116,1.29117 1.2938125,1.2938125 0 0 0 -1.29116,-1.29117 z"
           id="path1148-7-6-6"
           style="fill:#ee4890;stroke-width:0.264583" />
        <path
           d="m 107.98406,133.93337 a 3.6750625,3.6750625 0 1 0 3.67506,3.67506 3.6777083,3.6777083 0 0 0 -3.67506,-3.67506 z m 0,4.96623 a 1.2911667,1.2911667 0 1 1 1.29116,-1.29117 1.2938125,1.2938125 0 0 1 -1.29116,1.29117 z"
           id="path1150-5-1-1"
           style="stroke-width:0.264583" />
        <path
           class="cls-2"
           d="m 111.06381,158.10041 a 1.2911667,1.2911667 0 1 0 1.28852,1.29117 1.2938125,1.2938125 0 0 0 -1.28852,-1.29117 z"
           id="path1152-3-8-2"
           style="fill:#ffcc66;stroke-width:0.264583" />
        <path
           class="cls-3"
           d="m 101.09166,142.14868 a 1.2832292,1.2832292 0 0 0 -1.209144,-0.86519 1.3229166,1.3229166 0 0 0 -0.41275,0.0688 c -2.524125,0.8599 -5.950479,3.2094 -7.291916,7.00882 v 0 c -0.751417,2.11666 -0.79375,4.49791 -0.08202,7.06173 a 1.2752917,1.2752917 0 0 0 2.341562,0.29633 1.2647083,1.2647083 0 0 0 0.124355,-0.96838 c -1.756834,-6.45583 2.775479,-9.9351 5.728223,-10.97756 a 1.285875,1.285875 0 0 0 0.80169,-1.62454 z"
           id="path1156-5-7-9"
           style="fill:#2ab675;stroke-width:0.264583" />
        <path
           d="m 103.3512,141.38403 a 3.6644791,3.6644791 0 0 0 -4.648725,-2.28335 c -3.032125,1.02923 -7.14375,3.86556 -8.773584,8.46667 -0.918104,2.57704 -0.97102,5.43189 -0.134937,8.46666 a 3.6644791,3.6644791 0 0 0 7.069667,-1.92616 c -1.55575,-5.72823 3.241149,-7.73907 4.214809,-8.08302 a 3.6777083,3.6777083 0 0 0 2.27277,-4.6408 z m -3.06123,2.38125 c -2.952745,1.0504 -7.485058,4.52967 -5.728224,10.97492 a 1.2832292,1.2832292 0 0 1 -0.896938,1.5584 1.2832292,1.2832292 0 0 1 -1.568979,-0.89694 c -0.6985,-2.54265 -0.669396,-4.9239 0.08202,-7.04056 v 0 c 1.341437,-3.78884 4.7625,-6.13834 7.291916,-6.99823 a 1.3229166,1.3229166 0 0 1 0.41275,-0.0688 1.2779375,1.2779375 0 0 1 0.407455,2.48972 z"
           id="path1158-6-9-3"
           style="stroke-width:0.264583" />
        <path
           class="cls-4"
           d="m 117.9615,148.30818 a 12.7,12.7 0 0 0 -6.10659,-1.5875 10.617729,10.617729 0 0 0 -3.96875,0.74348 c -2.09021,0.84137 -3.89202,2.38125 -5.35252,4.60904 a 1.2779375,1.2779375 0 0 0 1.32292,1.95263 1.2567708,1.2567708 0 0 0 0.79375,-0.54769 c 3.67506,-5.57742 9.28423,-4.4794 12.01737,-2.95011 a 1.2782449,1.2782449 0 1 0 1.27265,-2.2172 z"
           id="path1160-2-2-1"
           style="fill:#74d1f6;stroke-width:0.264583" />
        <path
           d="m 119.14947,146.24443 c -2.77812,-1.5875 -7.62529,-2.80723 -12.14702,-0.98954 -2.55058,1.02394 -4.72281,2.87602 -6.45583,5.50862 a 3.667125,3.667125 0 0 0 3.05329,5.68061 3.77825,3.77825 0 0 0 0.74613,-0.0767 3.6406666,3.6406666 0 0 0 2.32039,-1.57427 c 3.26761,-4.96623 7.95602,-2.69346 8.85296,-2.19869 a 3.6644791,3.6644791 0 0 0 3.63008,-6.35 z m -0.71172,3.81 a 1.2911667,1.2911667 0 0 1 -1.7489,0.47625 c -2.73315,-1.52929 -8.34231,-2.62731 -12.01738,2.9501 a 1.2752917,1.2752917 0 0 1 -1.76741,0.36248 1.2779375,1.2779375 0 0 1 -0.36513,-1.778 c 1.4605,-2.21721 3.26232,-3.76766 5.35252,-4.60904 a 10.617729,10.617729 0 0 1 3.96875,-0.74348 12.7,12.7 0 0 1 6.10659,1.5875 1.2779375,1.2779375 0 0 1 0.47096,1.7489 z"
           id="path1162-9-0-9"
           style="stroke-width:0.264583" />
      </g>
      <path
         style="fill:none;fill-opacity:1;stroke:#000000;stroke-width:2.5;stroke-linecap:round;stop-color:#000000"
         d="m 50.981681,114.12715 c 0,0 6.52697,-5.44738 7.9375,-9.26041 1.07096,-2.89507 1.32291,-9.260424 1.32291,-9.260424 H 44.631676 c -3.74177,0 -7.9375,-4.19573 -7.9375,-7.9375 v -23.8125 c 0,-3.741772 4.19573,-7.9375 7.9375,-7.9375 h 42.333327 c 3.74178,0 7.93751,4.195725 7.93751,7.9375 v 23.8125 c 0,3.1799 -2.11177,7.9375 -5.29167,7.9375 h -14.81666 c 0,0 -3.4933,7.833024 -6.61458,10.583334 -4.737122,4.17412 -17.197922,7.9375 -17.197922,7.9375 z"
         id="path2153-4"
         sodipodi:nodetypes="cscsssssssscsc" />
      <g
         id="g1"
         transform="translate(-1.0583333)">
        <g
           id="g826-7-7-7"
           transform="translate(-37.081937,-71.161437)">
          <path
             style="fill:#ffffff;stroke:#000000;stroke-width:2.5;stroke-linecap:round;stop-color:#000000"
             d="m 132.06469,143.32895 2.80633,2.80633 0.93545,0.93545"
             id="path822-9-9-8" />
          <path
             style="fill:#ffffff;stroke:#000000;stroke-width:2.5;stroke-linecap:round;stop-color:#000000"
             d="m 118.96848,156.42516 -0.93544,4.67722 4.67722,-0.93544 15.90254,-15.90254 -3.74178,-3.74178 z"
             id="path820-0-5-4" />
        </g>
        <path
           style="fill:none;fill-opacity:1;stroke:#000000;stroke-width:2.5;stroke-linecap:round;stop-color:#000000"
           d="m 94.902503,71.793816 3.96875,3.96875"
           id="path2155-5" />
      </g>
    </g>
  </g>
</svg>
